/* XPM */
static char *result[] = {
/* columns rows colors chars-per-pixel */
"64 64 188 2 ",
"   c #3C1300",
".  c #3D1300",
"X  c #3D1400",
"o  c #3E1400",
"O  c #3F1400",
"+  c #3E1500",
"@  c #3B1705",
"#  c #3C1604",
"$  c #381D01",
"%  c #3C1906",
"&  c #003203",
"*  c #053003",
"=  c #003503",
"-  c #003703",
";  c #003104",
":  c #003604",
">  c #003804",
",  c #043A04",
"<  c #063A05",
"1  c #003F05",
"2  c #163103",
"3  c #1C3503",
"4  c #163F04",
"5  c #2A2201",
"6  c #2C2C02",
"7  c #332809",
"8  c #1C3131",
"9  c #232D2A",
"0  c #242E2B",
"q  c #2D3730",
"w  c #401500",
"e  c #421600",
"r  c #421700",
"t  c #461800",
"y  c #471900",
"u  c #441C01",
"i  c #4A1A00",
"p  c #4B1B00",
"a  c #4E1D00",
"s  c #4E1D02",
"d  c #521D00",
"f  c #551E00",
"g  c #541F00",
"h  c #472407",
"j  c #582100",
"k  c #5C2300",
"l  c #5E2500",
"z  c #5A2406",
"x  c #51240C",
"c  c #5B2B10",
"v  c #612500",
"b  c #612600",
"n  c #632800",
"m  c #662800",
"M  c #6A2B00",
"N  c #6E2C00",
"B  c #692F0C",
"V  c #722D00",
"C  c #753000",
"Z  c #7B3200",
"A  c #7B3600",
"S  c #7D3400",
"D  c #7E3500",
"F  c #7F3500",
"G  c #7D3809",
"H  c #633511",
"J  c #623018",
"K  c #713D12",
"L  c #004505",
"P  c #004705",
"I  c #064906",
"U  c #004E06",
"Y  c #055306",
"T  c #025606",
"R  c #005806",
"E  c #005B07",
"W  c #005E06",
"Q  c #015B0F",
"!  c #10580A",
"~  c #2A5A11",
"^  c #006500",
"/  c #006305",
"(  c #006606",
")  c #00610A",
"_  c #007507",
"`  c #066510",
"'  c #0A6714",
"]  c #037411",
"[  c #356119",
"{  c #054F29",
"}  c #015126",
"|  c #3B473C",
" . c #3F573C",
".. c #0A6139",
"X. c #396B21",
"o. c #3C652B",
"O. c #4C4619",
"+. c #4E511A",
"@. c #495A19",
"#. c #7A4427",
"$. c #6D5E23",
"%. c #133B42",
"&. c #094D40",
"*. c #0C414C",
"=. c #0F434D",
"-. c #114049",
";. c #11404A",
":. c #12444B",
">. c #114B56",
",. c #16585F",
"<. c #2E454C",
"1. c #3D4B49",
"2. c #125261",
"3. c #135D6E",
"4. c #1E606A",
"5. c #146A6B",
"6. c #176577",
"7. c #216A75",
"8. c #475546",
"9. c #7B5246",
"0. c #803500",
"q. c #813600",
"w. c #833600",
"e. c #803900",
"r. c #833800",
"t. c #853800",
"y. c #863A00",
"u. c #8A3D00",
"i. c #8B3E00",
"p. c #863F23",
"a. c #8E4000",
"s. c #8F4100",
"d. c #924300",
"f. c #924400",
"g. c #974700",
"h. c #9A4A00",
"j. c #9D4C00",
"k. c #A04E00",
"l. c #A35000",
"z. c #A55200",
"x. c #A65300",
"c. c #A95400",
"v. c #864E33",
"b. c #964D31",
"n. c #9C5A3D",
"m. c #AF5334",
"M. c #A95C33",
"N. c #AA5B3C",
"B. c #936934",
"V. c #A16131",
"C. c #D6633E",
"Z. c #D7633E",
"A. c #9B5E43",
"S. c #9E6E4D",
"D. c #B96444",
"F. c #A17C46",
"G. c #B27151",
"H. c #D96641",
"J. c #DC6741",
"K. c #D96B46",
"L. c #DF6F49",
"P. c #C47857",
"I. c #DF7D56",
"U. c #ED7B54",
"Y. c #F37D59",
"T. c #0B8718",
"R. c #0E881B",
"E. c #0F8A1C",
"W. c #128025",
"Q. c #148227",
"!. c #198329",
"~. c #218935",
"^. c #279A3B",
"/. c #2A9E3E",
"(. c #2EA144",
"). c #30A345",
"_. c #3BA853",
"`. c #3FAD58",
"'. c #A58454",
"]. c #A89057",
"[. c #F38861",
"{. c #F58B64",
"}. c #F68E67",
"|. c #ED9066",
" X c #F5A276",
".X c #166C80",
"XX c #177187",
"oX c None",
/* pixels */
"oXoXoXoXoXoXoXoXoXoXoXoXoXoXoXoXoXoXoXoXoXoXoXoXoXoXoXG S S S S S S S S G oXoXoXoXoXoXoXoXoXoXoXoXoXoXoXoXoXoXoXoXoXoXoXoXoXoXoX",
"oXoXoXoXoXoXoXoXoXoXoXoXoXoXoXoXoXoXoXoXoXoXoXoXoXoXoXr.y.t.t.t.t.t.t.y.r.oXoXoXoXoXoXoXoXoXoXoXoXoXoXoXoXoXoXoXoXoXoXoXoXoXoXoX",
"oXoXoXoXoXoXoXoXoXoXoXoXoXoXoXoXoXoXoXoXoXoXoXoXoXoXG a.d.f.f.f.f.f.f.d.a.G oXoXoXoXoXoXoXoXoXoXoXoXoXoXoXoXoXoXoXoXoXoXoXoXoXoX",
"oXoXoXoXoXoXoXoXoXoXoXoXoXoXoXoXoXoXoXoXoXoXoXoXoXF y.g.k.l.k.k.k.k.l.k.g.y.F oXoXoXoXoXoXoXoXoXoXoXoXoXoXoXoXoXoXoXoXoXoXoXoXoX",
"oXoXoXoXoXoXoXoXoXoXoXoXoXoXoXoXoXoXoXoXoXoXoXoXG i.f.j.z.x.x.x.x.x.x.z.j.f.i.G oXoXoXoXoXoXoXoXoXoXoXoXoXoXoXoXoXoXoXoXoXoXoXoX",
"oXoXoXoXoXoXoXoXoXoXoXoXoXoXoXoXoXoXoXoX@ # z F a.g.j.l.z.x.x.x.x.x.x.z.l.j.g.a.F z # @ oXoXoXoXoXoXoXoXoXoXoXoXoXoXoXoXoXoXoXoX",
"oXoXoXoXoXoXoXoXoXoXoXoXoXoXoXoXoXoXoXoXy d m D s.h.k.l.z.z.z.z.z.z.z.z.l.k.h.s.D m d y oXoXoXoXoXoXoXoXoXoXoXoXoXoXoXoXoXoXoXoX",
"oXoXoXoXoXoXoXoXoXoXoXoXoXoXoXoXoXoX. a k m C 0.u.s.g.k.x.x.z.z.z.z.x.x.k.g.s.u.0.C m k a . oXoXoXoXoXoXoXoXoXoXoXoXoXoXoXoXoXoX",
"oXoXoXoXoXoXoXoXoXoXoXoXoXoXoXoXoXoXO g N Z S S D q.u.g.l.x.z.z.z.z.x.l.g.u.q.D S S Z N g O oXoXoXoXoXoXoXoXoXoXoXoXoXoXoXoXoXoX",
"oXoXoXoXoXoXoXoXoXoXoXoXoXoXoXoXoX. o f V S V M N Z t.s.g.k.l.x.x.l.k.g.s.t.Z N M V S V f o . oXoXoXoXoXoXoXoXoXoXoXoXoXoXoXoXoX",
"oXoXoXoXoXoXoXoXoXoXoXoXoXoXoXoXoX. w f V C v d l C q.t.u.g.l.x.x.l.g.u.t.q.C l d v C V f w . oXoXoXoXoXoXoXoXoXoXoXoXoXoXoXoXoX",
"oXoXoXoXoXoXoXoXoXoXoXoXoXoXoXoXoX@ p l C C l s j M C Z q.s.h.k.k.h.s.q.Z C M j s l C C l p @ oXoXoXoXoXoXoXoXoXoXoXoXoXoXoXoXoX",
"oXoXoXoXoXoXoXoXoXoXoXoXoXoXoX@ r z b N Z Z N v j j l V 0.u.s.f.f.s.u.0.V l j j v N Z Z N b z r @ oXoXoXoXoXoXoXoXoXoXoXoXoXoXoX",
"oXoXoXoXoXoXoXoXoXoXoXoXoXoXoXo y b C D F F 0.Z m d d M Z F D D D D F Z M d d m Z 0.F F D C b y o oXoXoXoXoXoXoXoXoXoXoXoXoXoXoX",
"oXoXoXoXoXoXoXoXoXoXoXoXoXoXoX  t v Z q.F q.u.u.e.N n n m n n n n n n m n n N e.u.u.q.F q.Z v t   oXoXoXoXoXoXoXoXoXoXoXoXoXoXoX",
"oXoXoXoXoXoXoXoXoXoXoXoXoXoXoX  t v Z q.F t.f.j.j.f.e.n s t i i i i t s n e.f.j.j.f.t.F q.Z v t   oXoXoXoXoXoXoXoXoXoXoXoXoXoXoX",
"oXoXoXoXoXoXoXoXoXoXoXoXoXoXoX  t v Z w.t.u.h.l.c.c.f.M s t i i i i t s M f.c.c.l.h.u.t.w.Z v t   oXoXoXoXoXoXoXoXoXoXoXoXoXoXoX",
"oXoXoXoXoXoXoXoXoXoXoXoXoXoXoX  t l Z u.f.h.k.z.c.c.h.A m v n m m n v m A h.c.c.z.k.h.f.u.Z l t   oXoXoXoXoXoXoXoXoXoXoXoXoXoXoX",
"oXoXoXoXoXoXoXoXoXoXoXoXoXoXoX  t l Z s.j.l.z.z.z.l.h.u.S Z Z Z Z Z Z S u.h.l.z.z.z.l.j.s.Z l t   oXoXoXoXoXoXoXoXoXoXoXoXoXoXoX",
"oXoXoXoXoXoXoXoXoXoXoXoXoXoXoX  t v S s.k.c.c.z.k.g.s.u.q.q.q.q.q.q.q.q.u.s.g.k.z.c.c.k.s.S v t   oXoXoXoXoXoXoXoXoXoXoXoXoXoXoX",
"oXoXoXoXoXoXoXoXoXoXoXoXoXoXoX  t l Z s.j.x.c.l.h.u.w.q.0.F F 0.0.F F 0.q.w.u.h.l.c.x.j.s.Z l t   oXoXoXoXoXoXoXoXoXoXoXoXoXoXoX",
"oXoXoXoXoXoXoXoXoXoXoXoXoXoXoX  t f M e.f.j.k.h.s.w.D D F F F F F F F F D D w.s.h.k.j.f.e.M f t   oXoXoXoXoXoXoXoXoXoXoXoXoXoXoX",
"oXoXoXoXoXoXoXoXoXoXoXoXoXoXoX+ e t d m e.s.s.u.t.q.D D F F F F F F F F D D q.t.u.s.s.e.m d t e + oXoXoXoXoXoXoXoXoXoXoXoXoXoXoX",
"oXoXoXoXoXoXoXoXoXoXoXoXoXoXoX+ e u s l V S 0.0.0.F F F F F F F F F F F F F F q.0.0.S V l s u e + oXoXoXoXoXoXoXoXoXoXoXoXoXoXoX",
"oXoXoXoXoXoXoXoXoXoXoXoXoXoXoX  i J #.#.B m V Z F F F F F F F F F F F F F F F F Z V m B #.#.J i   oXoXoXoXoXoXoXoXoXoXoXoXoXoXoX",
"oXoXoXoXoXoXoXoXoXoXoXoXoXoXoX  x v.G.A.J d m Z q.F F F F F F F F F F F F F F q.Z m d J A.G.v.x   oXoXoXoXoXoXoXoXoXoXoXoXoXoXoX",
"oXoXoXoXoXoXoXoXoXoXoXoXoXoXoX# z n.P.A.J i v S q.0.F F F F F F F F F F F F 0.q.S v i J A.P.n.z # oXoXoXoXoXoXoXoXoXoXoXoXoXoXoX",
"oXoXoXoXoXoXoXoXoXoXoXoXoXoXoXoXoXN.D.b.c i v S w.0.F F F F F F F F F F F F 0.w.S v i c b.D.N.oXoXoXoXoXoXoXoXoXoXoXoXoXoXoXoXoX",
"oXoXoXoXoXoXoXoXoXoXoXoXoXoXoXoXoXoXm.p.x u l C D F F F F F F F F F F F F F F D C l u x p.m.oXoXoXoXoXoXoXoXoXoXoXoXoXoXoXoXoXoX",
"oXoXoXoXoXoXoXoXoXoXoXoXoXoXoXoXoXoXoXG 7 5 u v V Z q.q.q.q.q.q.q.q.q.q.q.q.Z V v u 5 7 G oXoXoXoXoXoXoXoXoXoXoXoXoXoXoXoXoXoXoX",
"oXoXoXoXoXoXoXoXoXoXoXoXoXoXoXoXoXoXoXoX, 2 5 u l C 0.0.D D D D D D D D 0.0.C l u 5 2 , oXoXoXoXoXoXoXoXoXoXoXoXoXoXoXoXoXoXoXoX",
"oXoXoXoXoXoXoXoXoXoXoXoXoXoXoXoXoXoXoX= , < 2 6 h n N N N N N N N N N N N N n h 6 2 < , = oXoXoXoXoXoXoXoXoXoXoXoXoXoXoXoXoXoXoX",
"oXoXoXoXoXoXoXoXoXoXoXoXoXoXoXoXoXoX& , P U I 4 6 h f f d d d d d d d d f f h 6 4 I U P , & oXoXoXoXoXoXoXoXoXoXoXoXoXoXoXoXoXoX",
"oXoXoXoXoXoXoXoXoXoXoXoXoXoXoXoXoX: > L U R E T 4 6 $ $ $ $ $ $ $ $ $ $ $ $ 6 4 T E R U L > : oXoXoXoXoXoXoXoXoXoXoXoXoXoXoXoXoX",
"oXoXoXoXoXoXoXoXoXoXoXoXoXoXoX= : 1 I U T E E R I 4 3 3 3 3 3 3 3 3 3 3 3 3 4 I R E E T U I 1 : = oXoXoXoXoXoXoXoXoXoXoXoXoXoXoX",
"oXoXoXoXoXoXoXoXoXoXoXoXoXoXoX; > P Y R R R E R T Y Y Y Y Y Y Y Y Y Y Y Y Y Y T R E R R R Y P > ; oXoXoXoXoXoXoXoXoXoXoXoXoXoXoX",
"oXoXoXoXoXoXoXoXoXoXoXoXoXoXoX* - L R E E E W / ( ( ( ( ( ( ( ( ( ( ( ( ( ( ( ( / W E E E R L - * oXoXoXoXoXoXoXoXoXoXoXoXoXoXoX",
"oXoXoXoXoXoXoXoXoXoXoXoXoXoXoX* - L T E R W ( _ _ _ _ _ _ _ _ _ _ _ _ _ _ _ _ _ _ ( W R E T L - * oXoXoXoXoXoXoXoXoXoXoXoXoXoXoX",
"oXoXoXoXoXoXoXoXoXoXoXoXoXoXoX* - L T R R ) ] T.T.T.T.T.T.T.T.T.T.T.T.T.T.T.T.T.T.] ) R R T L - * oXoXoXoXoXoXoXoXoXoXoXoXoXoXoX",
"oXoXoXoXoXoXoXoXoXoXoXoXoXoXoX* - L T R R ` !.^././././././././././././././././.^.!.` R R T L - * oXoXoXoXoXoXoXoXoXoXoXoXoXoXoX",
"oXoXoXoXoXoXoXoXoXoXoXoXoXoXoX* < I T R R ' ~._.`.`.`.`.`.`.`.`.`.`.`.`.`.`.`.`._.~.' R R T I < * oXoXoXoXoXoXoXoXoXoXoXoXoXoXoX",
"oXoXoXoXoXoXoXoXoXoXoXoXoXoXoXO.O.+.@.~ ! ` !./.).(.(.(.(.(.(.(.(.(.(.(.(.(.).)./.!.` ! ~ @.+.O.O.oXoXoXoXoXoXoXoXoXoXoXoXoXoXoX",
"oXoXoXoXoXoXoXoXoXoXoXoXoXoXoXM.M.M.V.$.~ ) ] R.E.E.E.E.E.E.E.E.E.E.E.E.E.E.E.E.R.] ) ~ $.V.M.M.M.oXoXoXoXoXoXoXoXoXoXoXoXoXoXoX",
"oXoXoXoXoXoXoXoXoXoXoXoXoXoXoXJ.J.L.L.B.[ ) ] T.R.T.T.T.T.T.T.T.T.T.T.T.T.T.T.R.T.] ) [ B.L.L.J.J.oXoXoXoXoXoXoXoXoXoXoXoXoXoXoX",
"oXoXoXoXoXoXoXoXoXoXoXoXoXoXoXJ.L.Y.|.F.[ ` W.^././././././././././././././././.^.W.` [ F.|.Y.L.J.oXoXoXoXoXoXoXoXoXoXoXoXoXoXoX",
"oXoXoXoXoXoXoXoXoXoXoXoXoXoXoXZ.L.{. X].X.' ~._.`.`.`.`.`.`.`.`.`.`.`.`.`.`.`.`._.~.' X.]. X{.L.Z.oXoXoXoXoXoXoXoXoXoXoXoXoXoXoX",
"oXoXoXoXoXoXoXoXoXoXoXoXoXoXoXZ.L.}. X].X.` Q./.).(.(.(.(.(.(.(.(.(.(.(.(.(.(.)./.Q.` X.]. X}.L.Z.oXoXoXoXoXoXoXoXoXoXoXoXoXoXoX",
"oXoXoXoXoXoXoXoXoXoXoXoXoXoXoXZ.L.{. X].X.) ] R.E.E.E.E.E.E.E.E.E.E.E.E.E.E.E.E.R.] ) X.]. X{.L.Z.oXoXoXoXoXoXoXoXoXoXoXoXoXoXoX",
"oXoXoXoXoXoXoXoXoXoXoXoXoXoXoXC.K.[.|.'.o.Q ( _ _ _ _ _ _ _ _ _ _ _ _ _ _ _ _ _ _ ( Q o.'.|.[.K.C.oXoXoXoXoXoXoXoXoXoXoXoXoXoXoX",
"oXoXoXoXoXoXoXoXoXoXoXoXoXoXoXoXoXU.I.S. .{ Q / ^ ^ ^ ^ ^ ^ ^ ^ ^ ^ ^ ^ ^ ^ ( ^ / Q {  .S.I.U.oXoXoXoXoXoXoXoXoXoXoXoXoXoXoXoXoX",
"oXoXoXoXoXoXoXoXoXoXoXoXoXoXoXoXoXH.K.A.1.&.} Q Q Q Q Q Q Q Q Q Q Q Q Q Q Q Q ) Q } &.1.A.K.H.oXoXoXoXoXoXoXoXoXoXoXoXoXoXoXoXoX",
"oXoXoXoXoXoXoXoXoXoXoXoXoXoXoXoXoXoXH.9.<.:.&.....................................&.:.<.9.H.oXoXoXoXoXoXoXoXoXoXoXoXoXoXoXoXoXoX",
"oXoXoXoXoXoXoXoXoXoXoXoXoXoXoXoXoXoXoXoX;.>.,.5.5.5.5.5.5.5.5.5.5.5.5.5.5.5.5.5.5.,.>.;.oXoXoXoXoXoXoXoXoXoXoXoXoXoXoXoXoXoXoXoX",
"oXoXoXoXoXoXoXoXoXoXoXoXoXoXoXoXoXoXoXoX;.>.3..XXXXX.X6.6.6.6.6.6.6.6.6.6..XXXXX.X3.>.;.oXoXoXoXoXoXoXoXoXoXoXoXoXoXoXoXoXoXoXoX",
"oXoXoXoXoXoXoXoXoXoXoXoXoXoXoXoXoXoXoXoX;.>.3..XXXXX.X3.2.2.2.2.2.2.2.2.3..XXXXX.X3.>.;.oXoXoXoXoXoXoXoXoXoXoXoXoXoXoXoXoXoXoXoX",
"oXoXoXoXoXoXoXoXoXoXoXoXoXoXoXoXoXoXoXoX;.:.,.7.7.7.4.>.:.-.=.=.=.=.-.:.>.4.7.7.7.,.:.;.oXoXoXoXoXoXoXoXoXoXoXoXoXoXoXoXoXoXoXoX",
"oXoXoXoXoXoXoXoXoXoXoXoXoXoXoXoXoXoXoXoX9 q | 8.8.8.| q 0 8 %.*.*.%.8 0 q | 8.8.8.| q 9 oXoXoXoXoXoXoXoXoXoXoXoXoXoXoXoXoXoXoXoX",
"oXoXoXoXoXoXoXoXoXoXoXoXoXoXoXoXoXoXoXoX# h c K K K H h % @ oXoXoXoX@ % h H K K K c h # oXoXoXoXoXoXoXoXoXoXoXoXoXoXoXoXoXoXoXoX",
"oXoXoXoXoXoXoXoXoXoXoXoXoXoXoXoXoXoXoX. O i m F t.w.V f w . oXoXoXoX. w f V w.t.F m i O . oXoXoXoXoXoXoXoXoXoXoXoXoXoXoXoXoXoXoX",
"oXoXoXoXoXoXoXoXoXoXoXoXoXoXoXoXoXoXr X o i m 0.t.w.V f w . oXoXoXoX. w f V w.t.0.m i o X r oXoXoXoXoXoXoXoXoXoXoXoXoXoXoXoXoXoX",
"oXoXoXoXoXoXoXoXoXoXoXoXoXoXoXoXoX. % + + i v C S Z M d w X oXoXoXoXX w d M Z S C v i + + % . oXoXoXoXoXoXoXoXoXoXoXoXoXoXoXoXoX",
"oXoXoXoXoXoXoXoXoXoXoXoXoXoXoXoXoXX o + + t d l v v j i w X oXoXoXoXX w i j v v l d t + + o X oXoXoXoXoXoXoXoXoXoXoXoXoXoXoXoXoX",
"oXoXoXoXoXoXoXoXoXoXoXoXoXoXoXoXoX. w + + e e t t t t e w X oXoXoXoXX w e t t t t e e + + w . oXoXoXoXoXoXoXoXoXoXoXoXoXoXoXoXoX",
"oXoXoXoXoXoXoXoXoXoXoXoXoXoXoXoXoX. w + + +           + w X oXoXoXoXX w +           + + + w . oXoXoXoXoXoXoXoXoXoXoXoXoXoXoXoXoX"
};
