/* XPM */
static char *_85a38b1cad04404dce0e8f60fa95719w4UNcHn0AkLfXSdZ[] = {
/* columns rows colors chars-per-pixel */
"64 64 256 2 ",
"   c #000000",
".  c #7E3200",
"X  c #510700",
"o  c #4E0400",
"O  c #3A0200",
"+  c #4A0300",
"@  c #7A2F00",
"#  c #520800",
"$  c #4E0300",
"%  c #4A0200",
"&  c #520900",
"*  c #752705",
"=  c #6F2400",
"-  c #782C03",
";  c #521900",
":  c #833700",
">  c #550D00",
",  c #6F2004",
"<  c #651A04",
"1  c #5C1100",
"2  c #190500",
"3  c #AD5910",
"4  c None",
"5  c #130400",
"6  c #B86312",
"7  c #6B2100",
"8  c #2F0A01",
"9  c #570C00",
"0  c #330C02",
"q  c #4E0400",
"w  c #7D3200",
"e  c #2C0B02",
"r  c #3E1104",
"t  c #3F0B01",
"y  c #260A02",
"u  c #330901",
"i  c #7A2B06",
"p  c #954B03",
"a  c #320D02",
"s  c #7C310D",
"d  c #9D4E01",
"f  c #150501",
"g  c #934304",
"h  c #150501",
"j  c #BB6808",
"k  c #521908",
"l  c #A44A11",
"z  c #944605",
"x  c #B67F3A",
"c  c #330D02",
"v  c #4F0D00",
"b  c #470300",
"n  c #914305",
"m  c #510800",
"M  c #BE762F",
"N  c #793516",
"B  c #964B10",
"V  c #C47114",
"C  c #381004",
"Z  c #160501",
"A  c #150501",
"S  c #570C00",
"D  c #200200",
"F  c #904005",
"G  c #7D3300",
"H  c #873B00",
"J  c #500400",
"K  c #551705",
"L  c #572108",
"P  c #7B3000",
"I  c #FFE164",
"U  c #FFCF5C",
"Y  c #F5B058",
"T  c #F6B453",
"R  c #F5B250",
"E  c #F5B04F",
"W  c #F8B958",
"Q  c #F5AE4A",
"!  c #5D1D09",
"~  c #FDCD6C",
"^  c #4F1805",
"/  c #7C280F",
"(  c #FFD575",
")  c #F8B450",
"_  c #3B0E02",
"`  c #F5B04E",
"'  c #FFD877",
"]  c #F2A944",
"[  c #8A2F12",
"{  c #EDB84A",
"}  c #9D5310",
"|  c #F8C064",
" . c #F6B656",
".. c #FED170",
"X. c #FBC664",
"o. c #591C08",
"O. c #641F0A",
"+. c #F8BC5B",
"@. c #903113",
"#. c #832B10",
"$. c #76260B",
"%. c #4B1705",
"&. c #F9B551",
"*. c #7C3413",
"=. c #CD883B",
"-. c #401003",
";. c #FAC260",
":. c #FFDA7A",
">. c #481304",
",. c #702307",
"<. c #EF9E35",
"1. c #FCCA69",
"2. c #F5B04C",
"3. c #FCC867",
"4. c #71260D",
"5. c #F8B24D",
"6. c #BD6B0F",
"7. c #FABC58",
"8. c #FCDB8E",
"9. c #541B07",
"0. c #AA4E18",
"q. c #F6AD44",
"w. c #AC6216",
"e. c #6A220B",
"r. c #431304",
"t. c #521906",
"y. c #F2A640",
"u. c #F1A337",
"i. c #320C02",
"p. c #C9771F",
"a. c #ECA03C",
"s. c #7C300F",
"d. c #602506",
"f. c #D88E37",
"g. c #FBBF5A",
"h. c #F9C05D",
"j. c #E4992F",
"k. c #E89C36",
"l. c #F1AD46",
"z. c #9B4D0C",
"x. c #F7D163",
"c. c #D17E21",
"v. c #C47124",
"b. c #F8BD60",
"n. c #B3650B",
"m. c #E8B348",
"M. c #92450D",
"N. c #D5872E",
"B. c #DF9E42",
"V. c #FFE697",
"C. c #F0A43E",
"Z. c #9D3D16",
"A. c #F6C463",
"S. c #C07C2C",
"D. c #7B2E08",
"F. c #DA8F2E",
"G. c #CC8434",
"H. c #623211",
"J. c #873F03",
"K. c #EB9A2C",
"L. c #A34F1A",
"P. c #EFBC51",
"I. c #FAB954",
"U. c #D88B25",
"Y. c #A85A06",
"T. c #DE942B",
"R. c #ED9F4A",
"E. c #FDDD75",
"W. c #DA8523",
"Q. c #953714",
"!. c #F5BC5B",
"~. c #C7762D",
"^. c #F5A73E",
"/. c #763B14",
"(. c #F7D16C",
"). c #DEAA49",
"_. c #C87E2C",
"`. c #A86E29",
"'. c #E69628",
"]. c #BF7429",
"[. c #F7D682",
"{. c #CD851C",
"}. c #D08F3F",
"|. c #54260A",
" X c #DF9734",
".X c #E5AB55",
"XX c #DCA14D",
"oX c #E8953E",
"OX c #662F0C",
"+X c #F3A12E",
"@X c #FFE179",
"#X c #6B3815",
"$X c #E88E2A",
"%X c #A75926",
"&X c #FFDD82",
"*X c #C56B1A",
"=X c #6B2E03",
"-X c #E38C20",
";X c #B95B17",
":X c #C87410",
">X c #C7873A",
",X c #DB9D3C",
"<X c #CB903B",
"1X c #782A09",
"2X c #D8923C",
"3X c #E18614",
"4X c #873806",
"5X c #FED06D",
"6X c #853A13",
"7X c #E6952F",
"8X c #7F3F19",
"9X c #F0C356",
"0X c #8F3F15",
"qX c #FDF0C6",
"wX c #F4CA60",
"eX c #BE6419",
"rX c #D07B14",
"tX c #E38728",
"yX c #823506",
"uX c #F3C96B",
"iX c #B4732D",
"pX c #D38326",
"aX c #D18015",
"sX c #ECAB4C",
"dX c #D29736",
"fX c #612D09",
"gX c #D0822C",
"hX c #BD7214",
"jX c #B1691C",
"kX c #F4B953",
"lX c #280B03",
"zX c #683411",
"xX c #E18F37",
"cX c #FCE391",
"vX c #C47F2F",
"bX c #DDA83D",
"nX c #B96922",
"mX c #E7C47D",
"MX c #763609",
"NX c #944204",
"BX c #DCA656",
"VX c #AB590D",
"CX c #E3BF78",
"ZX c #591402",
"AX c #9A521F",
"SX c #C18C3B",
"DX c #B57125",
"FX c #FBEBC3",
"GX c #7D4B1A",
"HX c #EBB763",
"JX c #B3720B",
"KX c #760A53",
"LX c #9A3F00",
"PX c #F10000",
"IX c #002800",
"UX c #47704C",
/* pixels */
"                                                                                                                                ",
"                                                                                                                                ",
"                                                                                                                                ",
"                                                                                                                                ",
"                                                                                                                                ",
"                                                                                                                                ",
"                                                                                                                                ",
"                                                                                                                                ",
"                                                                                                                                ",
"                                                                                                                                ",
"                                                                                                                                ",
"                                          O + o o $ $ $ $ $ $ $ $ $ $ $ $ $ $ o o + O                                           ",
"                                          % X & & # # # # # # # # # # # # # # & & X %                                           ",
"                                  O + 7 : g s D.D.s.*.*.*.*.*.*.*.*.*.*.*.s.s.1X$.i g : 7 + O                                   ",
"                                  % X = d j V p.p._.G.=.=.=.=.=.=.=.=.=.=.G._.v.eX6 j d = X %                                   ",
"                              ; % < * J.n.aX'.+Xu.] 5.&.&.&.&.&.&.&.&.I.g.I.q.<.$XW.rXn.4X, < % ;                               ",
"                              % q * 3 c.U.j.C.Q Q 2.R ) ) ) 5.5.) ) ) 7.~ 1.I.Q ] a.j.pX*Xl , q %                               ",
"                          O % < * M.c.+Xu.] E T T R R R E  .| |  .E E W 1.1.+.T T 2.y.<.$X*X0X, < % O                           ",
"                          + X * 3 c.'.u.] R W W T R R E ` | 8.8.| ` E T W +.+.W T E Q ] <.tX*Xl , X +                           ",
"                          > 1 yXp.+Xu.y.Q T W W T R R E ` | 8.8.| ` ` E E T W W T  .| b.l.<.$XeXD.1 >                           ",
"                          7 = M.c.u.] Q ` R T T R R R R E  .| |  .E E E E R T T E | 8.8.b.] <.p.M.= 7                           ",
"                      O % - z w.F.] R W W W  . .T T R E R E ` ` E T W W T E 2.2.R | 8.8.| Q ] F.w.F - % O                       ",
"                      + X i 6 U.a.R h.3.~ ~ X.;.+.W T E E E E ` E W 1.1.W Q l.Q  .b.| |  .E 2.a.c.3 * X +                       ",
"                      o & D.p.^.5.+.3...' ' ..~ 3.;.+.W T T T T R W ~ ~ W Q y.l.h.;.T ` E E 2.C.tX;X$.& o                       ",
"                      o & s.G.&.g.3...' :.:.' ( ( ....1.h.+.+.W T  .;.;. .Q C.l.X.~ W E R Q y.k.tX;X$.& o                       ",
"                      $ # s.G.I.3...( ' ' ' ( ' ' :.:.( 1.X.X.;.W W ;.h.T ] a.] X.~ W 2.E 2.l.a.$XeX$.# $                       ",
"                      $ # D.p.q.1.( ....( ( ....( :.:.' ( ( ( ~ ;.;.~ 1.T C.oXR.!.h.2.l.Q T +.) <.*X1X# $                       ",
"                      b m $.6.K.kX3.X.~ &X&X~ ~ &X&X:.' :.:.:.( 3.3.( 5XR a.oXR. .+.l.] T 7.g.2.K.6.1X# $                       ",
"                      J m ,.Y.aXK.^.R 1.V.V.3.3.V.V.:...' :.:.( ~ ~ ' ~ Q k.oXR.b.b.R.R.+.g.q.'.aXY.,.# $                       ",
"                  O a K , 4Xw.{.'.<.a..XmXCXXXXXCXmXHXY !.A.A.A.!.!.A.!.C.7XxXoXsXsXxXf.B.).k.T.{.} d.t b                       ",
"                  2 c L 4 nXdXm.P.m.F.~.iX`.w.w.`.iX~.N.F. X X Xk.k.k.k.7XtXW.W.U.pX:X6.w.DXdXbX,X`.|.D u                       ",
"                  8 0 |.L.N.P.x.P.,Xv.0.NX4XyXJ.NXVXv.N.F.T.T.T.j.j.j.j.j.j.T.F.U.{.{.hXw.w.S.<X<X`.|.y e 2 O                   ",
"                  8 0 |.L.f.uX(.B.v.0.Q.#.4.e.MX} v.B.{ { { { { { { { { { { { m.m.m.m.bXdXS.%XL.L.4 4.k y f 2                   ",
"                  8 0 9.M.].BXBX].0.Z.[ #.4.O.4.L.v.}.).m.m.m.P.wX(.[.[.(.x.x.x.x.wXP.).<XiX4 #.#./ / ! i.A 5                   ",
"                  8 0 %.4.4 %X%X0X[ @.@.@.#.4.1XQ.Z.4 %X].gXgX,XwXV.qXqXcXE.E.@X@XuXB.].AX6Xs.4.! ! 4.! i.h 5                   ",
"                  + c r k e./ / 4.4.#.@.Q.@./ / [ [ / [ 0.;X;X~..X[.FXqXcXE.E.E.(..X~.0.[ $.$.e.t.^ O.9.lXh 5                   ",
"                  O a e r %.! O.! O.$.#.@.@./ / [ @.@.@.Z.Z.Z.0.~.XXuX[.(.x.x.9XB.~.0.Z.@.#./ e.o.t.t.r.lXZ 5                   ",
"                      J t -.>.%.%.9.O.4./ / 4.$.#.[ [ [ [ [ [ Q.0.v.,X{ 9X9X).<XnXL.@.#.#./ 4.e.! t.>.C y f 2                   ",
"                      > v >.-._ _ r.9.! o.o.! O.$.$.e.e.$./ / #.Q.0.v. XP.).`.0X6Xs.4.O.! o.! ! o.^ r.r e 2 O                   ",
"                      9 # ZXd.fX|.9.^ >.r.>.^ ! e.O.o.o.O.e.e.4./ [ z.jXSXx 8XO.O.O.9.%.r.>.t.9.^ >.-.t u                       ",
"                      $ # ,.w.hXY.J.^ _ -.>.t.o.! o.^ ^ o.! ! ! o.! d.OX#X#Xd.o.t.%.r.-.r.>.t.^ -.-.>.v >                       ",
"                      o & s.gXu.U.jXGXH.fXd.d.! t.>.-.r.^ 9.9.^ r._ _ _ _ -.^ ^ r._ _ -.^ d.=X=XfXd.ZXS 9                       ",
"                      o & *.}.g.l.B.XXSXw.p J.=X%._ i._ %.9.9.%._ i.i.i.i._ %.%._ i._ %.=XJ.z.Y.n.} ,.& o                       ",
"                      + X N x XXsX&.X.kXU.hXn.} /.H.H.#X/.8X8X/.zXH.H.H.H.#X/./.zXH.OXMXp Y.n.6.6.3 * X +                       ",
"                      O % < N AXN.q.;.+.a.T. Xf._.S.>X>X}.}.}.=.vXS.S.vX>X>XG._.S.].6.6.:X:X6.Y.4X* < % O                       ",
"                          % q * 6 T.kXg.Q Q b.| &.) 7.g.7.7.7.&.q.^.^.q.5.5.^.u.u.K.-X3X3XrXn.p , q %                           ",
"                          ; % - n jXB.I.) b.8.V.' 5X..5X3.X.X.h.) Q Q 5.) Q C.<.<.K.-X3X3X:X} H - % ;                           ",
"                              w P B M =.f..X[.V.( ~ ..5X3.X.X.h.) Q Q 2.R Q C.<.<.'.rX6.6.3 n G w                               ",
"                              ; w - s 6XM.DX.X;.5.q.I.g.7.W W &.q.y.y.] 5.2.y.<.K.W.VXJ.D.* - w ;                               ",
"                                  % X 1 = B M G.c.pXf.2X2X2X2Xf.N.pXpXN.f.f.N.c.p.6 z = 1 X %                                   ",
"                                  O + > 7 - s 6XM.z.} } } } } } z.z.z.z.} } } M.yXi - : > + O                                   ",
"                                          % X 1 = . . . . . . . . . . . . . . = 1 X %                                           ",
"                                          O + 9 7 @ @ @ @ @ @ @ @ @ @ @ @ @ @ 7 9 + O                                           ",
"                                                                                                                                ",
"                                                                                                                                ",
"                                                                                                                                ",
"                                                                                                                                ",
"                                                                                                                                ",
"                                                                                                                                ",
"                                                                                                                                ",
"                                                                                                                                ",
"                                                                                                                                ",
"                                                                                                                                ",
"                                                                                                                                "
};
