/* XPM */
static char *aa789b1be8ea4414c74dcda19eccceadTTTlEylQelw8Zvrl[] = {
/* columns rows colors chars-per-pixel */
"64 64 256 2 ",
"   c #000000",
".  c white",
"X  c white",
"o  c white",
"O  c white",
"+  c white",
"@  c white",
"#  c white",
"$  c white",
"%  c None",
"&  c white",
"*  c white",
"=  c white",
"-  c white",
";  c white",
":  c white",
">  c white",
",  c white",
"<  c white",
"1  c white",
"2  c white",
"3  c white",
"4  c white",
"5  c white",
"6  c white",
"7  c white",
"8  c white",
"9  c white",
"0  c white",
"q  c white",
"w  c white",
"e  c white",
"r  c white",
"t  c white",
"y  c white",
"u  c white",
"i  c white",
"p  c white",
"a  c white",
"s  c white",
"d  c white",
"f  c white",
"g  c white",
"h  c white",
"j  c white",
"k  c white",
"l  c white",
"z  c white",
"x  c white",
"c  c white",
"v  c #FEFDFE",
"b  c white",
"n  c #FD86ED",
"m  c #FCF9FD",
"M  c #FDFCFE",
"N  c #D786F7",
"B  c #C373ED",
"V  c #984CB5",
"C  c #F9F5FB",
"Z  c #E394FB",
"A  c #F0BBFD",
"S  c #D280F8",
"D  c #C976EB",
"F  c #8748CF",
"G  c #F7DBFD",
"H  c #F2C1FD",
"J  c #9049B3",
"K  c #F0ABFC",
"L  c #F5CEFD",
"P  c #DA89FA",
"I  c #CA77F2",
"U  c #AC5FDA",
"Y  c #A254CD",
"T  c #A456D3",
"R  c #F5F0FA",
"E  c #F1EAF7",
"W  c #FCE6FB",
"Q  c #F9E0FD",
"!  c #F3C7FD",
"~  c #ECA5FC",
"^  c #E39FFC",
"/  c #ECA0FB",
"(  c #CE7BF3",
")  c #D47BDA",
"_  c #9C50CE",
"`  c #AB5AD2",
"'  c #9D52C8",
"]  c #8540A7",
"[  c #F5D3FD",
"{  c #F5BAFC",
"}  c #F0B1FC",
"|  c #E08DF9",
" . c #B965D9",
".. c #B261D9",
"X. c #B564DF",
"o. c #9A4FBF",
"O. c #8845AB",
"+. c #6D2C87",
"@. c #FDF3FC",
"#. c #F2B5FD",
"$. c #EAACFC",
"%. c #CD7FFB",
"&. c #DD98FC",
"*. c #D58CFB",
"=. c #B761D1",
"-. c #BE6DE7",
";. c #924CCB",
":. c #C471E5",
">. c #C27AFB",
",. c #C169D9",
"<. c #904BD1",
"1. c #AA5BDF",
"2. c #9D56E4",
"3. c #7A369E",
"4. c #EFE6F2",
"5. c #753582",
"6. c #FAEDFD",
"7. c #FBD6FC",
"8. c #E7A2FC",
"9. c #E7A5FC",
"0. c #E399FC",
"q. c #DA90FB",
"w. c #CD76E2",
"e. c #BE72F9",
"r. c #9C54D7",
"t. c #B162E8",
"y. c #A359D7",
"u. c #B76CF9",
"i. c #A958CB",
"p. c #8445C8",
"a. c #E4D5ED",
"s. c #78368B",
"d. c #F8C8FD",
"f. c #EB99F9",
"g. c #E89CFC",
"h. c #D180F1",
"j. c #CC73D1",
"k. c #CE7CEC",
"l. c #B767E4",
"z. c #8642BA",
"x. c #AB5EED",
"c. c #944DBB",
"v. c #C6A2E7",
"b. c #DFCCF0",
"n. c #D4BBE4",
"m. c #DECEE7",
"M. c #81378C",
"N. c #FAD0FB",
"B. c #F5A9F6",
"V. c #D193FC",
"C. c #D485FB",
"Z. c #EB93E7",
"A. c #C670DE",
"S. c #DC84E2",
"D. c #B15DC1",
"F. c #BA6CE1",
"G. c #B76AF2",
"H. c #A556C5",
"J. c #BB68EB",
"K. c #8D47C8",
"L. c #AF5BCE",
"P. c #954FD7",
"I. c #9E52C3",
"U. c #AE62F4",
"Y. c #B984E2",
"T. c #E7D9F5",
"R. c #BB95D3",
"E. c #904ABC",
"W. c #A577C2",
"Q. c #9658B6",
"!. c #E9DEEF",
"~. c #B38DC3",
"^. c #6A2B78",
"/. c #E894F3",
"(. c #E28BF0",
"). c #C168C8",
"_. c #ECB6FC",
"`. c #B861BD",
"'. c #E389E2",
"]. c #AA59BD",
"[. c #A354DD",
"{. c #924AC2",
"}. c #965CDB",
"|. c #AD7BE1",
" X c #984FC5",
".X c #D7C0EB",
"XX c #C29FD8",
"oX c #722F93",
"OX c #813CA3",
"+X c #944AA5",
"@X c #814998",
"#X c #A582AC",
"$X c #F8E5FD",
"%X c #F9B3F5",
"&X c #D99EFC",
"*X c #F1A2F7",
"=X c #C577FA",
"-X c #CB89FC",
";X c #AB5CC4",
":X c #A754B6",
">X c #B166F0",
",X c #8C54C7",
"<X c #843EB4",
"1X c #A55CED",
"2X c #8C45B0",
"3X c #A359CD",
"4X c #9F5DC6",
"5X c #ECE1F4",
"6X c #DBC5ED",
"7X c #7B39AA",
"8X c #C9ADEB",
"9X c #A974CD",
"0X c #9F67BA",
"qX c #A26BC7",
"wX c #823D9D",
"eX c #9369A6",
"rX c #893D94",
"tX c #C8AED4",
"yX c #CEBBD7",
"uX c #F9C3F9",
"iX c #FABCF7",
"pX c #F6B2FA",
"aX c #F4A1EF",
"sX c #D57FE9",
"dX c #B05CBC",
"fX c #C481FC",
"gX c #9F6AD9",
"hX c #A86BD3",
"jX c #C8ADDD",
"kX c #BD91E2",
"lX c #934499",
"zX c #B89DC2",
"xX c #AC82C7",
"cX c #6C308B",
"vX c #DA83EC",
"bX c #B963C5",
"nX c #AF5BE4",
"mX c #A152BC",
"MX c #A251B1",
"NX c #8C57B0",
"BX c #B482D2",
"VX c #A875DE",
"CX c #BC9CE0",
"ZX c #8C599F",
"AX c #8C41A4",
"SX c #D3B8ED",
"DX c #9963CA",
"FX c #AF83DB",
"GX c #CDB2EB",
"HX c #A366E2",
"JX c #D8CADD",
"KX c #784492",
"LX c #A075B6",
"PX c #C08DD5",
"IX c #004118",
"UX c #47704C",
/* pixels */
"                                                                                                                                ",
"                                                                                                                                ",
"                                                                                                                                ",
"                                                      O O # # # O                                                               ",
"                                              # @ X > o 2 . . 2 o > 4 @ #                                                       ",
"                                        # + > . e 5 1 y 3 h h 3 a 1 5 = . - + #                                                 ",
"                                    & 4 2 = d 3 w s ; $ % % % % $ ; s * k 1 : . < &                                             ",
"                                # 4 . t a * i % b b b b b b b b b b b b % ; u x 5 . < &                                         ",
"                            O + o : a u , b b b m R 5Xa.m.m.m.m.a.!.E C M b b $ 9 3 5 2 + O                                     ",
"                          # 4 g 1 * , b b m E a.n.XXxXW.W.qXqX9XW.xXR.jX6X5XC b b $ u f e < &                                   ",
"                        & - : 3 q b b m 5Xn.XXBX0XQ.J J E.{.{.E.E. X X4XY.v.SXT.C b b ; l t o @                                 ",
"                      & o 5 p $ b M E .XR.qX4Xo.J J c.c.I.Y '  XY T _ _ :.q.F.FXGX5Xm b $ * 8 2 @                               ",
"                    & o r * % b m T.v.VX3X' ' o.o.o.I.I.' 3XY T T T T [.nXnX[.r.gXkX6XR b % u 1 2 @                             ",
"                  & - r * % b C b.kXhXU U l.X.i.H.H.H.i.` ..U X.X.U U B N t.1.[.r.}.|.GXE b b 9 d 6 @                           ",
"                # > t w % b C 6XY.U y.X.l.h.h. .=.=.=.=. .F.-.B B J.I P *.J.nX1.2.2.2.VX8XE b b u r - #                         ",
"                X e l $ b C .XY.F.l.t.B B I I I D :.A.A.A.k.( *.C.S $._.I J.t.x.x.x.x.>XY.8XE b % w : < O                       ",
"              @ . a ; b m b.Y.U l.J.J.D I I ( S C.N S h.h.k.( C.q.*.0.9.%.G.G.>XG.G.U.G.>XVX8XR b $ k 0 +                       ",
"            O > r 9 b M T.kXU 1.J.-.B I D ( S P | Z 0.0.Z N N N &.&.&.q.%.=Xe.G.u.>.e.U.1X2.VX.Xm b q 1 o #                     ",
"            @ g h $ b E v.hXT U X.-.B I ( N N N | | Z g.~ 8.| N Z 8.0.^ q.%.e.e.e.-X-XU.U.1X}.Y.T.b b w : X                     ",
"            < r s b m n.9Xo.' `  .:.D ( P Z g.f./ } / / / ~ / Z Z ^ 8.9.^ C.=Xe.>.>.e.u.U.1X2.HXv.R b , y 2 #                   ",
"          & . 3 $ b 5X~.Q.c.i.=.,.D h.P g.$.#.A H [ { #.} K K ~ g.8.9.$._.q.%.=X%.fX>.e.u.U.2.2.|.b.M b * : X                   ",
"          + : * b m n.0XJ I.L.,.D h.0./ $.A ! [ [ G [ L L H } #.K ~ $._.A ^ C.%.-X-XfXfXfXu.1X1XHXv.R b ; 7 o #                 ",
"          - 1 i b 4.R.Q.o.` :.( P | 8.A A ! L [ G G G Q Q G ! { #.K } A A $.q.*.V.V.-X>.u.U.x.2.P.|.a.b % z 0 @                 ",
"        # . 3 $ b m.W.c.Y X.I S S | 9.A H ! L [ 7.G Q $X6.6.Q d.{ { A A _.^ &.&.&X&XV.>.u.>X1X2.P.gX8XC b 9 5 4                 ",
"        @ e p b C jX4X' U -.B D k.P 8.H ! ! d.L 7.Q W 6.@.m 6.G d.[ [ H _.9.^ &.&X&XV.>.u.>Xx.2.<.P.R.E b , 7 o O               ",
"        X t 9 b E R.4XY ..:.:.D h.| ~ A #.{ uXuXN.W @.m m M m 6.N.Q L ! H $.9.^ &.&XV.>.>.G.t.1.<.;.9Xa.b % k . #               ",
"        < 8 q b !.BX3XY `  .k.h.N g.K #.B.%XiXN.W M b b b b M m Q N.! ! H A H ^ &.V.V.>.u.>X[.P.F p.DX.XM b w e @               ",
"        - 1 ; b b.9X' 3X`  .h.h.N g.K K B.%XuXW M b M b b b b m W 7.L L ! A _.$.^ *.%.=Xe.t.r.P.p.p.,XjXm b 9 t X               ",
"      O o f , M 6X9X' 3Xi. .:.k.| g.K *XB.%XN.@.b b b b M b b M W N.L L H } 8.8.9.*.%.=XG.[.P.<.F p.,XXXC b q r 4               ",
"      O 6 y $ M .XhX X' i. .:.S Z f.f.aXB.iX7.m b b M b b b b b $XN.d.! A ~ g.^ &.C.%.%.t.[.<.F F F ,XCXR b i d <               ",
"      O 6 a $ M n.qXY ....,.D N Z Z /.Z.aX%X7.@.b b b b M b b m W N.L L } / g.0.q.S I B 1.r.r.<.p.p.,XCXR b ; 1 >               ",
"      O o y $ M .XhX_ ` ..:.D N Z | (.Z.aXiX7.@.b M b b b b M @.Q G G ! K / $.8.C.I J.t.1.r.y.<.p.F }.CXR b ; 1 -               ",
"        - 7 , M 6XVXr.T ..F.D S N vXS.'.Z.%Xd.W b b b M b M C W Q G G H / ~ H A C.I B 1.y.y.P.F F F }.v.R b ; 1 >               ",
"        > d ; b b.|.y.y.U  .:.( k.) S.'.Z.aXiXG m b b M M @.6.W Q [ H K K $.$.9.*.B D U _ r.<.F F F }.8XC b q 8 <               ",
"        4 5 v b T.Y.y.y.` ..F.:.k.j.) '.Z.B.pXd.Q m m @.@.@.6.$XG L A K ~ 9.0.&.S -.X.T ;.;.<.<.F F gXSXm b s 5 4               ",
"        + = * b E kXy.Y 3X`  .A./.) ) ) '.Z.B.{ d.Q 6.C @.6.Q G [ H #.} 9.&.*.S B X.U _ ;.K.K.<.F F gXb.b b u : +               ",
"        & g c % R v.DX' Y ` L.=.w.j.).) S.'.*XpXpXuXL G $X$XG [ ! A } $.0.P S B F.U T _ ;.K.p.;.<.p.FXT.b b j 0 @               ",
"        O o f , m n.qX X' I.;XD.bX).j.S.) S.Z.*XB.pX{ { H L ! H A } ~ 0.q.N D -.X.U T _ ;.K.K.r.K.,XCXR b $ a 2 #               ",
"          4 5 v b T.BXE.E.c.mX:XD.`.) j.j.) './.f.*X*XK K } } } K ~ Z P N h.:.F...` _ ;.;.K.K.T z.DXn.m b q 8 <                 ",
"          @ 0 z b R XXQ.2XJ V V ].D.bX`.).j.) (./.f./.f.f./ ~ ~ g.Z P S ( D -.X.U Y _ {.z.z.z.z.z.xX!.b b p e +                 ",
"          O o 7 ; M b.W.O.O.V V ].;XD.`.`.).j.S./ (.(.(.| Z Z Z Z P S ( I B -.B F.Y Y {.<X7X7X7XNXjXC b ; 7 6 #                 ",
"            + = w b R R.NXO.2XV V ;X;XdX`.`.).S.(.vXsXsXsXN | N P N I B -.-.l.l.U _  Xz.<X7X3.] W.a.b b w : X                   ",
"            # 6 7 ; M m.W.O.OXO.V i.;X].dXdX).) vXw.w.w.w.sXk.k.h.k.D F...X...T _ {.z.<X7X3.3.NXtXC b ; 7 6 #                   ",
"              X e j % C tX0X] OXJ i.mX].:XdXD.).) ,.,.A.w.A.A.w.D ,. .L.` T Y _ {.<X] 3.oXoX@X~.5Xb % z e +                     ",
"              # - 8 9 b 4.R.ZXwX] c.o.V V :X].].D.bX=.,.=.,.,.A. .L.H.I.o.c.c.E.] O.OXcXcXwXLXm.M b 9 8 - #                     ",
"                @ . y ; b a.~.+XOXO.J V V MX:XMXMX:XD.L.=. .=.=.L.H.o.V 2X] O.J 3.3.3.+.cXeXyXm b i f . @                       ",
"                  X e h $ M a.~.Q.] J V V V +XlXlXlX+XmXH.i.H.` ` Y o.i.2XwX3.oXoX+.+.s.eXyXC b , 3 0 +                         ",
"                  O < : j $ m a.XXQ.O.O.J 2XwXrXrXM.lX+X+XV V I.I... Xo.O.] 3.oX+.+.KXLXyXR b , c = 4 O                         ",
"                    # > t p $ M !.XX0XO.2XJ AXM.M.rXM.M.rXAXAXwX] ] ] OX3.3.OXoXcX@X~.a.C b , c : < #                           ",
"                      # - t z , b E yXxXQ.J ] M.s.rX5.5.5.s.s.5.5.+.+.+.+.cXs.@XeXzX!.b b i 3 = < #                             ",
"                        # > : 3 i b m !.tXPX0X@Xs.s.s.M.^.^.5.^.^.^.^.+.s.KXeXzXm.R b % 9 y 0 4 #                               ",
"                          # 4 0 7 u $ b C 4.n.~.eXZX@X+X5.M.5.5.^.5.@XZX#XzXJXE M b ; p 8 . + O                                 ",
"                            O + 2 5 k q % b m 4.m.yXtX~.#X#X#X#X#XzXtXJX!.C b b , * f = - @                                     ",
"                                & < g 8 l s $ b b M C R 4.4.4.4.E C M b b % i w y : 6 + #                                       ",
"                                  O @ > g r x * q $ % b b b b b % $ , q * 3 d = 6 X #                                           ",
"                                      # @ < 2 = 8 y h p w w w p l x 7 r = . > + #                                               ",
"                                            # + < o . 0 e e e 0 . 2 - 4 @ #                                                     ",
"                                                  O & & @ @ @ & # O                                                             ",
"                                                                                                                                ",
"                                                                                                                                ",
"                                                                                                                                ",
"                                                                                                                                ",
"                                                                                                                                ",
"                                                                                                                                "
};
