/* XPM */
static char *_78c2ee3603744eeddb97818fe747b4678rGvhaz5lfgbf64[] = {
/* columns rows colors chars-per-pixel */
"64 64 4 1 ",
"  c None",
". c black",
"X c black",
"o c black",
/* pixels */
"X......  .                    .      ..........................X",
".oooooooooooooooooooooooooooooooooooooooooooooooooooooooooooooo ",
".oooooooooooooooooooooooooooooooooooooooooooooooooooooooooooooo ",
".oooooooooooooooooooooooooooooooooooooooooooooooooooooooooooooo ",
".oooooooooooooooooooooooooooooooooooooooooooooooooooooooooooooo ",
" oooooooooooooooooooooooooooooooooooooooooooooooooooooooooooooo ",
" oooooooooooooooooooooooooooooooooooooooooooooooooooooooooooooo ",
" oooooooooooooooooooooooooooooooooooooooooooooooooooooooooooooo ",
" oooooooooooooooooooooooooooooooooooooooooooooooooooooooooooooo ",
" oooooooooooooooooooooooooooooooooooooooooooooooooooooooooooooo ",
" oooooooooooooooooooooooooooooooooooooooooooooooooooooooooooooo ",
" oooooooooooooooooooooooooooooooooooooooooooooooooooooooooooooo ",
" oooooooooooooooooooooooooooooooooooooooooooooooooooooooooooooo ",
" oooooooooooooooooooooooooooooooooooooooooooooooooooooooooooooo ",
" oooooooooooooooooooooooooooooooooooooooooooooooooooooooooooooo ",
" oooooooooooooooooooooooooooooooooooooooooooooooooooooooooooooo ",
" oooooooooooooooooooooooooooooooooooooooooooooooooooooooooooooo ",
" oooooooooooooooooooooooooooooooooooooooooooooooooooooooooooooo ",
" oooooooooooooooooooooooooooooooooooooooooooooooooooooooooooooo ",
" oooooooooooooooooooooooooooooooooooooooooooooooooooooooooooooo ",
" oooooooooooooooooooooooooooooooooooooooooooooooooooooooooooooo ",
" oooooooooooooooooooooooooooooooooooooooooooooooooooooooooooooo ",
" oooooooooooooooooooooooooooooooooooooooooooooooooooooooooooooo ",
" oooooooooooooooooooooooooooooooooooooooooooooooooooooooooooooo ",
" oooooooooooooooooooooooooooooooooooooooooooooooooooooooooooooo ",
" oooooooooooooooooooooooooooooooooooooooooooooooooooooooooooooo ",
" oooooooooooooooooooooooooooooooooooooooooooooooooooooooooooooo ",
" oooooooooooooooooooooooooooooooooooooooooooooooooooooooooooooo ",
" oooooooooooooooooooooooooooooooooooooooooooooooooooooooooooooo ",
" oooooooooooooooooooooooooooooooooooooooooooooooooooooooooooooo ",
" oooooooooooooooooooooooooooooooooooooooooooooooooooooooooooooo ",
" oooooooooooooooooooooooooooooooooooooooooooooooooooooooooooooo ",
" oooooooooooooooooooooooooooooooooooooooooooooooooooooooooooooo ",
" oooooooooooooooooooooooooooooooooooooooooooooooooooooooooooooo ",
" oooooooooooooooooooooooooooooooooooooooooooooooooooooooooooooo ",
" oooooooooooooooooooooooooooooooooooooooooooooooooooooooooooooo ",
" oooooooooooooooooooooooooooooooooooooooooooooooooooooooooooooo ",
".oooooooooooooooooooooooooooooooooooooooooooooooooooooooooooooo ",
".oooooooooooooooooooooooooooooooooooooooooooooooooooooooooooooo ",
".oooooooooooooooooooooooooooooooooooooooooooooooooooooooooooooo ",
".oooooooooooooooooooooooooooooooooooooooooooooooooooooooooooooo ",
".oooooooooooooooooooooooooooooooooooooooooooooooooooooooooooooo ",
".oooooooooooooooooooooooooooooooooooooooooooooooooooooooooooooo ",
".oooooooooooooooooooooooooooooooooooooooooooooooooooooooooooooo ",
".oooooooooooooooooooooooooooooooooooooooooooooooooooooooooooooo ",
".oooooooooooooooooooooooooooooooooooooooooooooooooooooooooooooo ",
".oooooooooooooooooooooooooooooooooooooooooooooooooooooooooooooo ",
".oooooooooooooooooooooooooooooooooooooooooooooooooooooooooooooo ",
".oooooooooooooooooooooooooooooooooooooooooooooooooooooooooooooo ",
".oooooooooooooooooooooooooooooooooooooooooooooooooooooooooooooo ",
".oooooooooooooooooooooooooooooooooooooooooooooooooooooooooooooo ",
".oooooooooooooooooooooooooooooooooooooooooooooooooooooooooooooo ",
".oooooooooooooooooooooooooooooooooooooooooooooooooooooooooooooo ",
".oooooooooooooooooooooooooooooooooooooooooooooooooooooooooooooo ",
".oooooooooooooooooooooooooooooooooooooooooooooooooooooooooooooo ",
".oooooooooooooooooooooooooooooooooooooooooooooooooooooooooooooo ",
".oooooooooooooooooooooooooooooooooooooooooooooooooooooooooooooo ",
".oooooooooooooooooooooooooooooooooooooooooooooooooooooooooooooo ",
".oooooooooooooooooooooooooooooooooooooooooooooooooooooooooooooo ",
".oooooooooooooooooooooooooooooooooooooooooooooooooooooooooooooo ",
".oooooooooooooooooooooooooooooooooooooooooooooooooooooooooooooo ",
".oooooooooooooooooooooooooooooooooooooooooooooooooooooooooooooo ",
".oooooooooooooooooooooooooooooooooooooooooooooooooooooooooooooo ",
"X                                                              ."
};
