/* XPM */
static char *result[] = {
/* columns rows colors chars-per-pixel */
"64 64 232 2 ",
"   c black",
".  c #602500",
"X  c #5A2200",
"o  c #763000",
"O  c #3B1300",
"+  c #005A06",
"@  c #793200",
"#  c #A55200",
"$  c #471900",
"%  c #060200",
"&  c #823600",
"*  c #200A00",
"=  c #020100",
"-  c #003804",
";  c #7F3400",
":  c #0C8718",
">  c #FFAC81",
",  c #003103",
"<  c #005506",
"1  c #6C2C01",
"2  c #005005",
"3  c #722E01",
"4  c #259E3D",
"5  c #FFAE83",
"6  c #FFA97D",
"7  c #A65300",
"8  c #A25000",
"9  c #120702",
"0  c #2FA244",
"q  c #0E8B1C",
"w  c #9D4B00",
"e  c #361502",
"r  c #431800",
"t  c #632700",
"y  c #964600",
"u  c #853700",
"i  c #613F2D",
"p  c #8D3F00",
"a  c #3E1400",
"s  c #1A0C04",
"d  c #0B0401",
"f  c #4D1C00",
"g  c #E4714A",
"h  c #883C00",
"j  c #3EAD58",
"k  c #FDA57A",
"l  c #146A6B",
"z  c #0B6239",
"x  c #672500",
"c  c #004605",
"v  c #004304",
"b  c #270E00",
"n  c #532000",
"m  c #EC8961",
"M  c #357715",
"N  c #E8835C",
"B  c #025C0F",
"V  c #000C05",
"C  c #2A1205",
"Z  c #DD6A44",
"A  c #DC8258",
"S  c #166375",
"D  c #003D02",
"F  c #FA7435",
"G  c #F46D39",
"H  c #D26E48",
"J  c #FFA376",
"K  c #FFA67A",
"L  c #F99169",
"P  c #F89C72",
"I  c #E99C73",
"U  c #FEC9AD",
"Y  c #EBE8E6",
"T  c #001D02",
"R  c #230F04",
"E  c #2B651B",
"W  c #0E2325",
"Q  c #103E47",
"!  c #F0A678",
"~  c #2A4F16",
"^  c #7C3300",
"/  c #125463",
"(  c #F38D64",
")  c #916C2E",
"_  c #D7683E",
"`  c #E27851",
"'  c #B8693E",
"]  c #C26C4B",
"[  c #186B7E",
"{  c #226A74",
"}  c #006501",
"|  c #017606",
" . c #242828",
".. c #9E5E31",
"X. c #F6F5F5",
"o. c #E4E3E3",
"O. c #999C9E",
"+. c #B7A8A1",
"@. c #DD653E",
"#. c #95894D",
"$. c #904100",
"%. c #887037",
"&. c #636122",
"*. c #4F2513",
"=. c #81602C",
"-. c #09530C",
";. c #375B13",
":. c #716224",
">. c #431E13",
",. c #92462D",
"<. c #713D12",
"1. c #41AE59",
"2. c #465546",
"3. c #AE713D",
"4. c #FDB188",
"5. c #E58A63",
"6. c #FD926A",
"7. c #F6A07B",
"8. c #773B1F",
"9. c #3C453E",
"0. c #4D5A51",
"q. c #0A0C0C",
"w. c #DAD8D8",
"e. c #91532D",
"r. c #FFEEE4",
"t. c #D8BFAE",
"y. c #CDB3A2",
"u. c #253D0F",
"i. c #A75300",
"p. c #311300",
"a. c #A75400",
"s. c #95814C",
"d. c #085908",
"f. c #215A10",
"g. c #F3966D",
"h. c #FE864B",
"j. c #FD9968",
"k. c #F48356",
"l. c #083908",
"z. c #F97842",
"x. c #5F7A2A",
"c. c #5B2B1C",
"v. c #7B4F2E",
"b. c #946C2D",
"n. c #5F3310",
"m. c #097916",
"M. c #0E5C1B",
"N. c #1F8C35",
"B. c #286E13",
"V. c #24626C",
"C. c #2C5C18",
"Z. c #874129",
"A. c #194A52",
"S. c #AE583B",
"D. c #ED744E",
"F. c #7E756E",
"G. c #486A6D",
"H. c #523B31",
"J. c #A9673F",
"K. c #363732",
"L. c #127086",
"P. c #156E83",
"I. c #704A2C",
"U. c #DE946F",
"Y. c #8A6B5A",
"T. c #BA7A5E",
"R. c #68391D",
"E. c #F1AC88",
"W. c #BF8060",
"Q. c #FFBD9E",
"!. c #FFE5DB",
"~. c #745240",
"^. c #C4967B",
"/. c #E6D3C8",
"(. c #9C7660",
"). c #AF9D93",
"_. c #6D7274",
"`. c #24211F",
"'. c #B0B3B4",
"]. c #EEEEED",
"[. c #002C03",
"{. c #C9603B",
"}. c #A85400",
"|. c #682E00",
" X c #FF955E",
".X c #C85D3A",
"XX c #A36F3D",
"oX c #2F280E",
"OX c #A56D3A",
"+X c #349749",
"@X c #94794A",
"#X c #196326",
"$X c #8F604E",
"%X c #233330",
"&X c #0E1718",
"*X c #964D36",
"=X c #41220D",
"-X c #153135",
";X c #EC9D82",
":X c #1F7E14",
">X c #6E934E",
",X c #28A444",
"<X c #458D35",
"1X c #117289",
"2X c #6C8B42",
"3X c #BB7243",
"4X c #1F5A64",
"5X c #592610",
"6X c #166208",
"7X c #B15537",
"8X c #15891E",
"9X c #396E15",
"0X c #F2AA90",
"qX c #E8C1AE",
"wX c #FCD9CD",
"eX c #C87F5B",
"rX c #8D4B1C",
"tX c #CBCFD2",
"yX c #874312",
"uX c #AB8977",
"iX c #AB7A57",
"pX c #D0845C",
"aX c #B57654",
"sX c #9B9694",
"dX c #A3633C",
"fX c #A7A8A9",
"gX c #BDACA4",
"hX c #8C8F91",
"jX c #FC2800",
"kX c #A50000",
"lX c #002500",
"zX c #602200",
/* pixels */
"                                                        % e 1 u u 1 e %                                                         ",
"                                                    = % s $ o h h o $ s % =                                                     ",
"                                                    d R r |.h y y h |.r R d                                                     ",
"                                            = =   = s f o p w 8 8 w p o f s =   = =                                             ",
"                                          % s b b b r 1 p w # a.a.# w p 1 r b b b s %                                           ",
"                                          d e X . . 1 h w 8 # 7 7 # 8 w h 1 . . X e d                                           ",
"                                      = d b n @ u u p w # 7 # # # # 7 # w p u u @ n b d =                                       ",
"                                      9 e n 1 & p y w 8 7 7 # # # # 7 7 8 w y p & 1 n e 9                                       ",
"                                    % C X o ^ ; p w 8 # # # # # # # # # # 8 w p ; ^ o X C %                                     ",
"                                = 9 C f 3 u & & $.8 }.i.# # # # # # # # i.}.8 $.& & u 3 f C 9 =                                 ",
"                                d p.X 3 ^ & ; & $.w i.7 # # # # # # # # 7 i.w $.& ; & ^ 3 X p.d                                 ",
"                              % s $ o ; @ o @ & p y 8 # # 7 # # # # 7 # # 8 y p & @ o @ ; o $ s %                               ",
"                              * p.X @ o t . 1 ; h p y w 7 a.7 7 7 7 a.7 w y p h ; 1 . t o @ X p.*                               ",
"                              O r . o 1 n f t @ ; & h y 8 # 8 8 8 8 # 8 y h & ; @ t f n 1 o . r O                               ",
"                              a $ t @ 3 . X X zX1 o ; h $.y y y y y y $.h ; o 1 zXX X . 3 @ t $ a                               ",
"                              a $ . @ ; o 1 X f X 3 ; & u u h h h h u u & ; 3 X f X 1 o ; @ . $ a                               ",
"                              O $ . @ ; o 3 R.i v.e.......rX& ^ ^ & rX......e.v.i R.3 o ; @ . $ O                               ",
"                              O $ . @ 3 . R.Y.).y.y.t.t.y.iXyXo o yXiXy.t.t.y.y.).Y.R.. 3 @ . $ O                               ",
"                              O $ t o x f i ).Y X.Y Y ]./.^.e.; ; e.^./.].Y Y X.Y ).i f x o t $ O                               ",
"                              O $ t o x $ i +.X.o.'.O.O.sX(.dX....dX(.sXO.O.'.o.X.+.i $ x o t $ O                               ",
"                              O $ t o x $ i +.Y '.0. . .K.~.aXpXpXaX~.K. . .0.'.Y +.i $ x o t $ O                               ",
"                              a $ t @ x $ i +.o.O. .    d i W.I I W.i d   =  .O.o.+.i $ x @ t $ a                               ",
"                              a $ t @ x $ i +.o.O.`.    % i T.I U.T.i %     `.O.o.+.i $ x @ t $ a                               ",
"                              e r X 3 x n I.gXY fX9.q.q.`.~.W.I I W.~.`.q.q.9.fXY gXI.n x 3 X r e                               ",
"                              * b a X 1 8.(.t.].tXhX_._.F.uXU.I I U.uXF._._.hXtX].t.(.8.1 X a b *                               ",
"                              % 9 b $ 8.J.^./.X.X.o.w.w.w.qXE.k k E.qXw.w.w.o.X.X./.^.J.8.$ b 9 %                               ",
"                                d C 5Xe.eXE.U !.r.r.r.!.wXU 4.6 6 4.U wX!.r.r.r.!.U E.eXe.5XC d                                 ",
"                                9 >.Z.' U.4.Q.U U U Q.0X;X7.> 5 5 > 7.;X0XQ.U U U Q.4.U.' Z.>.9                                 ",
"                                9 *.,.] 5.k > > 5 > P N ` m P k k P m ` N P > 5 > > k 5.] ,.*.9                                 ",
"                              = d C c.*XH L J K 6 6 P ( N N m m m m N N ( P 6 6 K J L H *Xc.C d                                 ",
"                                = % s c.S.` L k > 6 6 k P m ` Z Z ` m P k 6 6 > k L ` S.c.s % =                                 ",
"                                    V oXI.J.A g.J 6 6 J j.k.g @.@.g k.j.J 6 6 J g.A J.I.oXV                                     ",
"                                = V T l.~ &.OX` L k J  Xh.z.F G G F z.h. XJ k L ` OX&.~ l.T V =                                 ",
"                              = V T , v 2 f.:.' A g.j.h.F F F F F F F F h.j.g.A ' :.f.2 v , T V =                               ",
"                              T T , c 2 < d.;.&.XXA k.z.G G G G G G G G z.k.A XX&.;.d.< 2 c , T T                               ",
"                              [., v 2 + + + d.f.&.' Z Z _ _ _ _ _ _ _ _ Z Z ' &.f.d.+ + + 2 v , [.                              ",
"                              , - c < + + < 2 2 ;.:.b.b.) ) ) ) ) ) ) ) b.b.:.;.2 2 < + + < c - ,                               ",
"                              , - c < + + < c v -.B.M M M M M M M M M M M M B.-.v c < + + < c - ,                               ",
"                              , - c < + + 2 D - -.m.: : : : : : : : : : : : m.-.- D 2 + + < c - ,                               ",
"                              , - c < + + 2 D - M.N.4 4 4 4 4 4 4 4 4 4 4 4 N.M.- D 2 + + < c - ,                               ",
"                              , - c < + + 2 D l.#X+X1.1.j j j j j j j j 1.1.+X#Xl.D 2 + + < c - ,                               ",
"                              , - c < + + 2 D - M.N.0 0 0 0 0 0 0 0 0 0 0 0 N.M.- D 2 + + < c - ,                               ",
"                              , - c < + + 2 D - -.m.q q q q q q q q q q q q m.-.- D 2 + + < c - ,                               ",
"                              u.u.~ E E E E ~ ~ C.B.:X: : : : : : : : : 8X:XB.C.~ ~ E E E E ~ u.u.                              ",
"                              v.=.%.s.#.#.#.s.@X%.%.x.<X4 4 4 4 4 4 4 4 <Xx.%.%.@Xs.#.#.#.s.%.=.v.                              ",
"                              .XH A I ! ! ! ! I 5.H 3.>X1.j 1.j 1.j j 1.>X3.H 5.I ! ! ! ! I A H {.                              ",
"                              @.g ( 6 5 5 5 4.> 6.D.3X2X0 ,X0 0 0 0 ,X0 2X3XD.6.> 4.5 5 5 6 ( g @.                              ",
"                              _ g m k > > > 5 6 L g 3.x.8Xq q q q q q 8Xx.3.g L 6 5 > > > k m g _                               ",
"                              _ g m k > > 6 K P A ' =.9X| | | | | | | | 9X=.' A P K 6 > > k m g _                               ",
"                              @.g ( k 5 5 k 6.N 3.:.;.6X} } } } } } } } 6X;.:.3.N 6.k 5 5 k ( g @.                              ",
"                              .XH N P 6 6 P N ] =.C.B B B B B B B B B B B B C.=.] N P 6 6 P N H .X                              ",
"                              8.,.] m 6.L 5.T.Y.0.z z z z z z z z z z z z z z 0.Y.T.5.L 6.m ] ,.8.                              ",
"                              s >.Z.H D.g ] F.G.{ l l l l l l l l l l l l l l { G.F.] g D.H Z.>.s                               ",
"                            =   9 *.,.7XS.$XG.[ L.P.[ [ S S S S S S S S [ [ P.L.[ G.$XS.7X,.*.9                                 ",
"                                % R >.H.H.0.V.P.1XL.[ S / / / / / / / / S [ L.1XP.V.0.H.H.>.R %                                 ",
"                                = = % &X-XA.4X{ { { V.A.Q Q Q Q Q Q Q Q A.V.{ { { 4XA.-X&X% =                                   ",
"                                      V W %X9.2.2.2.9.K. .W W W W W W  .K.9.2.2.2.9.%XW V                                       ",
"                                      9 C =Xn.<.<.<.n.*.e s q.V V q.s e *.n.<.<.<.n.=XC 9                                       ",
"                                = % 9 b r X 3 ; u u 3 X O * %     % * O X 3 u u ; 3 X r b 9 % =                                 ",
"                                % 9 b r . 3 ^ & u u o X O * %     % * O X o u u & ^ 3 . r b 9 %                                 ",
"                                % * O n 1 @ @ @ @ @ 1 n O * %     % * O n 1 @ @ @ @ @ 1 n O * %                                 ",
"                                % * O f X . . . . . X f O * %     % * O f X . . . . . X f O * %                                 ",
"                                % * O r $ $ $ $ $ $ $ r O * %     % * O r $ $ $ $ $ $ $ r O * %                                 ",
"                                % * O a a O O O O O a a O * %     % * O a a O O O O O a a O * %                                 "
};
