/* XPM */
static char *result[] = {
/* columns rows colors chars-per-pixel */
"64 64 215 2 ",
"   c #080706",
".  c #0F0016",
"X  c #3C1300",
"o  c #3E1400",
"O  c #3E1502",
"+  c #3F1604",
"@  c #013303",
"#  c #073305",
"$  c #013803",
"%  c #003F03",
"&  c #17390A",
"*  c #1F2E2C",
"=  c #143438",
"-  c #242425",
";  c #33342E",
":  c #401500",
">  c #451700",
",  c #401803",
"<  c #471800",
"1  c #4C1B03",
"2  c #4A1C03",
"3  c #491A05",
"4  c #521D00",
"5  c #521E01",
"6  c #572000",
"7  c #592202",
"8  c #5E2402",
"9  c #4C2B19",
"0  c #583713",
"q  c #5F3014",
"w  c #612500",
"e  c #662701",
"r  c #6B2704",
"t  c #692903",
"y  c #6A2B04",
"u  c #712E00",
"i  c #762F00",
"p  c #793200",
"a  c #7D3400",
"s  c #7E3400",
"d  c #7E3500",
"f  c #7F3500",
"g  c #6E3616",
"h  c #7A381B",
"j  c #004204",
"k  c #004604",
"l  c #09460C",
"z  c #035005",
"x  c #005806",
"c  c #005D0D",
"v  c #0D5C0C",
"b  c #0D531B",
"n  c #284D0F",
"m  c #374913",
"M  c #2C5E12",
"N  c #036709",
"B  c #007706",
"V  c #087E15",
"C  c #0E721C",
"Z  c #277011",
"A  c #357615",
"S  c #0E4C3A",
"D  c #167525",
"F  c #0D603A",
"G  c #55401A",
"H  c #514A1B",
"J  c #515B1B",
"K  c #54482D",
"L  c #6C4C24",
"P  c #7A4226",
"I  c #664331",
"U  c #666029",
"Y  c #647635",
"T  c #163C42",
"R  c #15434A",
"E  c #10434D",
"W  c #14515D",
"Q  c #16666A",
"!  c #146679",
"~  c #206974",
"^  c #404540",
"/  c #465348",
"(  c #545E53",
")  c #705544",
"_  c #7A7757",
"`  c #466669",
"'  c #6A6E71",
"]  c #7D7E7F",
"[  c #803500",
"{  c #803600",
"}  c #823700",
"|  c #833700",
" . c #833604",
".. c #803506",
"X. c #853900",
"o. c #863A00",
"O. c #883B00",
"+. c #893C00",
"@. c #8B3E00",
"#. c #883A09",
"$. c #904200",
"%. c #914200",
"&. c #924400",
"*. c #954600",
"=. c #9A4900",
"-. c #9D4C00",
";. c #A14F00",
":. c #A65300",
">. c #964225",
",. c #964629",
"<. c #97482A",
"1. c #9F4E2F",
"2. c #9F5131",
"3. c #925930",
"4. c #A84B22",
"5. c #B34E21",
"6. c #B35536",
"7. c #B35B38",
"8. c #B15E3C",
"9. c #B85A3B",
"0. c #836329",
"q. c #916B2C",
"w. c #CC663F",
"e. c #D5653E",
"r. c #DA643F",
"t. c #D9663F",
"y. c #DF663E",
"u. c #EB6B38",
"i. c #FF7C3B",
"p. c #855944",
"a. c #AC5E44",
"s. c #8A6553",
"d. c #A46648",
"f. c #BD6242",
"g. c #BF6645",
"h. c #B2714C",
"j. c #BB7956",
"k. c #C36441",
"l. c #C46E4D",
"z. c #DB6A45",
"x. c #D66F4E",
"c. c #DA6E48",
"v. c #C77351",
"b. c #C87F5B",
"n. c #E26C46",
"m. c #E56F47",
"M. c #F27641",
"N. c #E57952",
"B. c #0A8117",
"V. c #0B8818",
"C. c #0E8B1C",
"Z. c #24872F",
"A. c #278A37",
"S. c #259E3C",
"D. c #2EA043",
"F. c #34A346",
"G. c #3FAB57",
"H. c #619D52",
"J. c #7B9455",
"K. c #42AF5B",
"L. c #BF8269",
"P. c #A18475",
"I. c #D0815E",
"U. c #FF8446",
"Y. c #E88059",
"T. c #EA845B",
"R. c #EC865D",
"E. c #FF8E54",
"W. c #F7845B",
"Q. c #CB8A65",
"!. c #D68B67",
"~. c #CC9565",
"^. c #CD9A68",
"/. c #DD9470",
"(. c #D99A7A",
"). c #E28B64",
"_. c #F28963",
"`. c #FB9566",
"'. c #F0966D",
"]. c #FF9D6A",
"[. c #EB9E79",
"{. c #F79C72",
"}. c #FCA278",
"|. c #FEA67B",
" X c #177086",
".X c #8E9193",
"XX c #9B9D9E",
"oX c #B39382",
"OX c #B7A8A0",
"+X c #AFB4B6",
"@X c #DFA181",
"#X c #FFAC81",
"$X c #FFB085",
"%X c #EEA993",
"&X c #EAAD92",
"*X c #FDB590",
"=X c #FFBF9C",
"-X c #DDC3B6",
";X c #EBC2AD",
":X c #FFCBAE",
">X c #EECABE",
",X c #FFD4BC",
"<X c #C7CCCF",
"1X c #DAD9D9",
"2X c #EAD0C3",
"3X c #FEE0D2",
"4X c #F7E1DB",
"5X c #FFE9DB",
"6X c #E6E4E4",
"7X c #EFEEEE",
"8X c #FFF1E7",
"9X c #FAF9F8",
"0X c #FFFBFA",
"qX c #FFFEFE",
"wX c None",
/* pixels */
"wXwXwXwXwXwXwXwXwXwXwXwXwXwXwXwXwXwXwXwXa s a a a a {  .wXwXwXwXwXwXwXwXwXwXwXwXwXwXwXwXwXwXwXwXwXwXwXwXwXwXwXwXwXwXwXwXwXwXwXwX",
"wXwXwXwXwXwXwXwXwXwXwXwXwXwXwXwXwXwXwXwX .o.X.X.X.X.{ s wXwXwXwXwXwXwXwXwXwXwXwXwXwXwXwXwXwXwXwXwXwXwXwXwXwXwXwXwXwXwXwXwXwXwXwX",
"wXwXwXwXwXwXwXwXwXwXwXwXwXwXwXwXwXwXwX| +.$.%.%.%.%.&.+. ...wX........a wXwXwXwXwXwXwXwXwXwXwXwXwXwXwXwXwXwXwXwXwXwXwXwXwXwXwXwX",
"wXwXwXwXwXwXwXwXwXwXwXwXwXwXwXwXwXwXs o.&.-.;.;.;.;.-.*.o.d d d d d d s O.a wXwXwXwXwXwXwXwXwXwXwXwXwXwXwXwXwXwXwXwXwXwXwXwXwXwX",
"wXwXwXwXwXwXwXwXwXwXwXwXwXwXwXwXwX| O.%.=.:.:.:.:.;.=.%.X.} X.@.@.@.@.@.@.| wXwXwXwXwXwXwXwXwXwXwXwXwXwXwXwXwXwXwXwXwXwXwXwXwXwX",
"wXwXwXwXwXwXwXwXwXwXwXwXwXwXwXwXs O.*.-.;.:.:.:.;.*.@.X.[ X.%.=.-.-.-.-.-.O.+.| | s wXwXwXwXwXwXwXwXwXwXwXwXwXwXwXwXwXwXwXwXwXwX",
"wXwXwXwXwXwXwXwXwXwXwXwXwXwXwX| o.%.-.:.:.:.:.;.=.@.} a a X.%.-.;.;.;.;.-.*.@.X.X.o. .wXwXwXwXwXwXwXwXwXwXwXwXwXwXwXwXwXwXwXwXwX",
"wXwXwXwXwXwXwXwXwXwXwXwXwXa  .+.&.=.;.:.:.:.;.*.@.X.f a a } @.%.%.%.%.%.%.%.*.*.*.*.+. .wXwXwXwXwXwXwXwXwXwXwXwXwXwXwXwXwXwXwXwX",
"wXwXwXwXwXwXwXwXwXwXwXwXwXs o.$.-.:.:.:.:.;.=.@.} f f f f [ [ } } } } } X.%.-.;.;.-.&.o.s wXwXwXwXwXwXwXwXwXwXwXwXwXwXwXwXwXwXwX",
"wXwXwXwXwXwXwXwXwXwXwXwXwXa X.%.;.:.:.:.;.=.%.X.f f [ [ f f a a a a a a [ @.*.=.=.=.%.%.O.| wXwXwXwXwXwXwXwXwXwXwXwXwXwXwXwXwXwX",
"wXwXwXwXwXwXwXwXwXwXwXwXwXa X.%.;.:.:.;.*.@.X.} [ [ [ [ f f f f f f f a f } X.@.@.@.%.=.*.O.s wXwXwXwXwXwXwXwXwXwXwXwXwXwXwXwXwX",
"wXwXwXwXwXwXwXwXwXwXwXwXwX+.O.o.-.;.;.=.X.i u u u u u i a [ [ [ [ [ f f f f f a a } %.=.*.} d wXwXwXwXwXwXwXwXwXwXwXwXwXwXwXwXwX",
"wXwXwXwXwXwXwXwXwXwXwXwXwXwX..| $.%.%.X.u 6 5 5 5 5 6 e p } } [ [ [ [ [ f f a a a f X.@.} y 7 0 wXwXwXwXwXwXwXwXwXwXwXwXwXwXwXwX",
"wXwXwXwXwXwXwXwXwXwXwXwXwXwXwX..O.{ { { t 2 < 2 2 2 2 8 u a a a a a a a f f f f f f } } u 6 , + wXwXwXwXwXwXwXwXwXwXwXwXwXwXwXwX",
"wXwXwXwXwXwXwXwXwXwXwXwXwXwXwXwX|  . .s r t g P P P P g e w w w w w y i f [ [ f f f [ a u w 4 1 wXwXwXwXwXwXwXwXwXwXwXwXwXwXwXwX",
"wXwXwXwXwXwXwXwXwXwXwXwXwXwXwXwXwXwXwXwX .>.2.h.j.j.h.3.q < > < < < 6 y a } [ f f f f f a i t 7 O O wXwXwXwXwXwXwXwXwXwXwXwXwXwX",
"wXwXwXwXwXwXwXwXwXwXwXwXwXwXwXwXwXwXwXwXx.L.I.!./.@X@XL.p.I I I I q q y u p a f [ [ [ [ [ } p 8 < X wXwXwXwXwXwXwXwXwXwXwXwXwXwX",
"wXwXwXwXwXwXwXwXwXwXwXwXwXwXwXwXwXwXwX0X4X>X&X@X@X;X3X2X-XOXOXOXoXd.3.g 8 e p [ [ [ [ [ } } p 8 < X wXwXwXwXwXwXwXwXwXwXwXwXwXwX",
"wXwXwXwXwXwXwXwXwXwXwXwXwXwXwXwXwXwXqX9X9X6X-X@X@X;X6X7X6X6X7X7X2X@Xh.P 2 6 i f a p p p a [ p 8 < X wXwXwXwXwXwXwXwXwXwXwXwXwXwX",
"wXwXwXwXwXwXwXwXwXwXwXwXwXwXwXwXwXwXqX7X<XXXoX(.(.oXXX.XXX+X6X9X3X&Xj.P 2 5 u p u e w w y p p w < X wXwXwXwXwXwXwXwXwXwXwXwXwXwX",
"wXwXwXwXwXwXwXwXwXwXwXwXwXwXwXwXwXwXqX6X.X^ ) Q./.s.; - - ( +X7X3X&Xj.P 2 6 i i 8 2 < 2 6 u p w < X wXwXwXwXwXwXwXwXwXwXwXwXwXwX",
"wXwXwXwXwXwXwXwXwXwXwXwXwXwXwXwXwXwXqX1X' . 9 b.!.I       - XX7X3X&Xj.P 2 6 i u 5 : > 5 8 y y 6 > X wXwXwXwXwXwXwXwXwXwXwXwXwXwX",
"wXwXwXwXwXwXwXwXwXwXwXwXwXwXwXwXx.%X3X1X'   9 b.!.I       - .X7X5X*Xb.P 2 6 i u 5 : 8 h h e 5 < : : wXwXwXwXwXwXwXwXwXwXwXwXwXwX",
"wXwXwXwXwXwXwXwXwXwXwXwXwXwXwXt.z.[.3X1X] ; I Q./.p.-     ^ XX7X5X=X!.P 2 5 u u 6 5 h 2.,.g 2 2 , , wXwXwXwXwXwXwXwXwXwXwXwXwXwX",
"wXwXwXwXwXwXwXwXwXwXwXwXwXwXt.N.T.&X5X7X+X] P.@X[.oX] ' ' .X<X9X5X=X!.P > : 6 w y h 2.g.8.,.g 1 3 + wXwXwXwXwXwXwXwXwXwXwXwXwXwX",
"wXwXwXwXwXwXwXwXwXwXwXwXwXz.z.T.{.=X5X9X7X1X-X*X*X;X1X1X1X6X7X9X3X=X!.P 2 X > 8 h 2.g.b.b.8.1.<.wXwXwXwXwXwXwXwXwXwXwXwXwXwXwXwX",
"wXwXwXwXwXwXwXwXwXwXwXwXwXe.c.R.|.=X3X5X8X8X,X=X*X,X5X8X8X8X8X5X,X*X).d.g q q h ,.8.v.!.I.g.9.wXwXwXwXwXwXwXwXwXwXwXwXwXwXwXwXwX",
"wXwXwXwXwXwXwXwXwXwXwXwXwXe.c.R.|.*X=X:X:X:X=X*X$X=X:X:X:X:X:X=X=X$X[.b.d.d.d.d.8.8.v.!.I.g.9.wXwXwXwXwXwXwXwXwXwXwXwXwXwXwXwXwX",
"wXwXwXwXwXwXwXwXwXwXwXwXwXz.z.T.{.|.|.|.|.|.|.|.}.|.|.|.|.|.#X#X#X#X}.[./.!.!.I.g.g.v.I.b.k.6.wXwXwXwXwXwXwXwXwXwXwXwXwXwXwXwXwX",
"wXwXwXwXwXwXwXwXwXwXwXwXwXt.x.N.R.R.R.R.W.E.E.E.E.E.E.E.E.E.].|.#X#X|.}.[.[./.!.I.v.v.v.l.f.wXwXwXwXwXwXwXwXwXwXwXwXwXwXwXwXwXwX",
"wXwXwXwXwXwXwXwXwXwXwXwXwXwXwXx.z.c.c.m.M.i.i.i.i.i.i.i.i.U.`.|.#X#X#X#X|.[./.!.!.I.v.g.7.wXwXwXwXwXwXwXwXwXwXwXwXwXwXwXwXwXwXwX",
"wXwXwXwXwXwXwXwXwXwXwXwXwXwXwXwXy.r.r.r.u.M.i.U.U.U.U.U.U.E.].|.#X#X#X#X#X'.!.I.I.I.l.7.wXwXwXwXwXwXwXwXwXwXwXwXwXwXwXwXwXwXwXwX",
"wXwXwXwXwXwXwXwXwXwXwXwXwXwXwXwXwXwXwXwXy.m.M.`.].].].].].].|.#X#X#X#X$X|.).v.g.g.k.f.wXwXwXwXwXwXwXwXwXwXwXwXwXwXwXwXwXwXwXwXwX",
"wXwXwXwXwXwXwXwXwXwXwXwXwXwXwXwXwXwXwXwXwXk.c.'.}.}.}.}.}.}.}.}.}.}.}.|.{.I.8.2.2.1.<.wXwXwXwXwXwXwXwXwXwXwXwXwXwXwXwXwXwXwXwXwX",
"wXwXwXwXwXwXwXwXwXwXwXwXwXwXwXwXwXwXwXwX0 L 3.v._._._._._._._._._._._._.Y.h.U H H G 0 wXwXwXwXwXwXwXwXwXwXwXwXwXwXwXwXwXwXwXwXwX",
"wXwXwXwXwXwXwXwXwXwXwXwXwXwXwXwXwXwXwXwX# & H 8.c.c.c.c.c.c.c.c.c.c.c.c.w.0.M z l & # wXwXwXwXwXwXwXwXwXwXwXwXwXwXwXwXwXwXwXwXwX",
"wXwXwXwXwXwXwXwXwXwXwXwXwXwXwXwXwXwXwXwX@ % n U q.q.q.q.q.q.q.q.3.3.3.3.0.J v z k % @ wXwXwXwXwXwXwXwXwXwXwXwXwXwXwXwXwXwXwXwXwX",
"wXwXwXwXwXwXwXwXwXwXwXwXwXwXwXwXwXwX# @ j z v Z A A A A A A A A M m m m M M x x z z j @ # wXwXwXwXwXwXwXwXwXwXwXwXwXwXwXwXwXwXwX",
"wXwXwXwXwXwXwXwXwXwXwXwXwXwXwXwXwXwX@ $ k x N V V.V.V.V.V.V.V.B.N k $ k x x x x x x k $ @ wXwXwXwXwXwXwXwXwXwXwXwXwXwXwXwXwXwXwX",
"wXwXwXwXwXwXwXwXwXwXwXwXwXwXwXwXwXwX@ $ k x C Z.S.S.S.S.S.S.S.S.D l $ k x x x c x x k $ @ wXwXwXwXwXwXwXwXwXwXwXwXwXwXwXwXwXwXwX",
"wXwXwXwXwXwXwXwXwXwXwXwXwXwXwXwXwXwX@ $ k x D D.G.K.G.G.G.G.K.G.Z.l $ k x x x x x x k $ @ wXwXwXwXwXwXwXwXwXwXwXwXwXwXwXwXwXwXwX",
"wXwXwXwXwXwXwXwXwXwXwXwXwXwXwXwXwXwX@ $ k x C A.D.F.D.D.D.D.F.D.D l $ k x x x c x x k $ @ wXwXwXwXwXwXwXwXwXwXwXwXwXwXwXwXwXwXwX",
"wXwXwXwXwXwXwXwXwXwXwXwXwXwXwXwXwXwX@ $ k x N B.C.C.C.C.C.C.C.V.N k $ k x x x x x x k $ @ wXwXwXwXwXwXwXwXwXwXwXwXwXwXwXwXwXwXwX",
"wXwXwXwXwXwXwXwXwXwXwXwXwXwXwXwXwXwX@ $ k x N V V.V.V.V.V.V.C.B.N k $ k x x x x x x k $ @ wXwXwXwXwXwXwXwXwXwXwXwXwXwXwXwXwXwXwX",
"wXwXwXwXwXwXwXwXwXwXwXwXwXwXwXwXwXwX@ $ k x C Z.S.D.S.D.S.S.S.S.D k $ k x x x x x z k $ @ wXwXwXwXwXwXwXwXwXwXwXwXwXwXwXwXwXwXwX",
"wXwXwXwXwXwXwXwXwXwXwXwXwXwXwXwXwXwX@ $ k x D D.G.K.G.G.G.K.K.G.A.b l l v v v v v v l $ @ wXwXwXwXwXwXwXwXwXwXwXwXwXwXwXwXwXwXwX",
"wXwXwXwXwXwXwXwXwXwXwXwXwXwXwXwXwXwXK H n v C A.D.F.D.D.D.F.H.J._ Y U Y Y Y Y Y Y Y U H K wXwXwXwXwXwXwXwXwXwXwXwXwXwXwXwXwXwXwX",
"wXwXwXwXwXwXwXwXwXwXwXwXwXwXwXwXwXwX7.3.J v N V C.C.C.C.C.Z.Y h.b.Q.~.^.^.^.^.^.^.~.j.8.7.wXwXwXwXwXwXwXwXwXwXwXwXwXwXwXwXwXwXwX",
"wXwXwXwXwXwXwXwXwXwXwXwXwXwXwXwXwXwXr.g.U b c N B B B B B Z 0.e.W.}.#X#X#X#X#X#X#X|._.m.r.wXwXwXwXwXwXwXwXwXwXwXwXwXwXwXwXwXwXwX",
"wXwXwXwXwXwXwXwXwXwXwXwXwXwXwXwXwXwXn.g.) S b c N N N N N M 0.e.W.}.$X$X#X#X#X#X$X|._.m.r.wXwXwXwXwXwXwXwXwXwXwXwXwXwXwXwXwXwXwX",
"wXwXwXwXwXwXwXwXwXwXwXwXwXwXwXwXwXwXy.k.) R S b c c c c c M 0.g.Y.{.|.#X#X#X#X#X#X}._.c.r.wXwXwXwXwXwXwXwXwXwXwXwXwXwXwXwXwXwXwX",
"wXwXwXwXwXwXwXwXwXwXwXwXwXwXwXwXwXwXwXa.K R S F F F F F F F ( s.j.).`.}.#X#X#X#X$X|._.c.r.wXwXwXwXwXwXwXwXwXwXwXwXwXwXwXwXwXwXwX",
"wXwXwXwXwXwXwXwXwXwXwXwXwXwXwXwXwXwXwXwXT E W Q Q Q Q Q Q ~ ~ ` _ v.Y.`.|.#X#X#X#X|._.c.r.wXwXwXwXwXwXwXwXwXwXwXwXwXwXwXwXwXwXwX",
"wXwXwXwXwXwXwXwXwXwXwXwXwXwXwXwXwXwXwXwXT E W !  X X X X! ! ! ~ ` s.g.).{.{.{.{.{.'.T.n.x.wXwXwXwXwXwXwXwXwXwXwXwXwXwXwXwXwXwXwX",
"wXwXwXwXwXwXwXwXwXwXwXwXwXwXwXwXwXwXwXwXT E W !  X X X! Q W W W W / ) h.Y.R.Y.Y.Y.T.N.wXwXwXwXwXwXwXwXwXwXwXwXwXwXwXwXwXwXwXwXwX",
"wXwXwXwXwXwXwXwXwXwXwXwXwXwXwXwXwXwXwXwXT E W Q ~ ~ ~ Q R R R E R R ^ p.w.e.e.e.e.k.x.wXwXwXwXwXwXwXwXwXwXwXwXwXwXwXwXwXwXwXwXwX",
"wXwXwXwXwXwXwXwXwXwXwXwXwXwXwXwXwXwXwXwXT * ; ^ / / / ^ ; * = T = * ; P 4.5.5.4.,.>...wXwXwXwXwXwXwXwXwXwXwXwXwXwXwXwXwXwXwXwXwX",
"wXwXwXwXwXwXwXwXwXwXwXwXwXwXwXwXwXwXwXwX+ , 9 q g h g q 2 O wXwXwXO 2 y #.%.@.f y 7 + wXwXwXwXwXwXwXwXwXwXwXwXwXwXwXwXwXwXwXwXwX",
"wXwXwXwXwXwXwXwXwXwXwXwXwXwXwXwXwXwXwXwX1 4 w i } X.[ e 2 O wXwXwXO 2 e p [ f u 8 4 1 wXwXwXwXwXwXwXwXwXwXwXwXwXwXwXwXwXwXwXwXwX",
"wXwXwXwXwXwXwXwXwXwXwXwXwXwXwXwXwXwX+ 1 7 t i f } X.[ e 2 O wXwXwXO 2 e a } [ p u t 7 1 + wXwXwXwXwXwXwXwXwXwXwXwXwXwXwXwXwXwXwX",
"wXwXwXwXwXwXwXwXwXwXwXwXwXwXwXwXwXwXo 2 8 u p p p p i w 2 O wXwXwXO 2 w i p p p p u 8 2 o wXwXwXwXwXwXwXwXwXwXwXwXwXwXwXwXwXwXwX",
"wXwXwXwXwXwXwXwXwXwXwXwXwXwXwXwXwXwXo > 5 8 w w 8 w 8 5 < O wXwXwXO < 5 8 w 8 w w 8 5 > o wXwXwXwXwXwXwXwXwXwXwXwXwXwXwXwXwXwXwX",
"wXwXwXwXwXwXwXwXwXwXwXwXwXwXwXwXwXwXo : > < < < < < < > : O wXwXwXO : > < < < < < < > : o wXwXwXwXwXwXwXwXwXwXwXwXwXwXwXwXwXwXwX",
"wXwXwXwXwXwXwXwXwXwXwXwXwXwXwXwXwXwXo : X X X X X X X X : O wXwXwXO : X X X X X X X X : o wXwXwXwXwXwXwXwXwXwXwXwXwXwXwXwXwXwXwX"
};
