/* XPM */
static char *_d08d2addf2248b6eee18f25c67f6525bepA0Q3Q7gTS75Ag[] = {
/* columns rows colors chars-per-pixel */
"64 64 256 2 ",
"   c #000000",
".  c #3C1300",
"X  c #7F3500",
"o  c #753000",
"O  c #3B1300",
"+  c #622D08",
"@  c #582418",
"#  c #3D1400",
"$  c #4F2003",
"%  c #3C1400",
"&  c #033104",
"*  c #003604",
"=  c #46290F",
"-  c #D4613D",
";  c #3D1C05",
":  c #134751",
">  c #003303",
",  c #003103",
"<  c #CF603C",
"1  c #3F1500",
"2  c #451800",
"3  c #7D3400",
"4  c #813600",
"5  c #7E3D0F",
"6  c #9B4D1B",
"7  c #252002",
"8  c #2E1A03",
"9  c #9E4B2E",
"0  c #29190B",
"q  c #7D3300",
"w  c #7F3500",
"e  c #4B2509",
"r  c #7F3500",
"t  c #813609",
"y  c #331600",
"u  c #DA6641",
"i  c #D8633F",
"p  c #DE6B45",
"a  c #3E1300",
"s  c #E28159",
"d  c #DA845B",
"f  c #401600",
"g  c #3D1401",
"h  c None",
"j  c #7D3300",
"k  c #803500",
"l  c #7F3500",
"z  c #531F00",
"x  c #3C1401",
"c  c #E5693D",
"v  c #D9704B",
"b  c #401701",
"n  c #4B1A00",
"m  c #003404",
"M  c #914200",
"N  c #8B3D00",
"B  c #3F1500",
"V  c #574C1F",
"C  c #003203",
"Z  c #013905",
"A  c #534730",
"S  c #D8623D",
"D  c #D46440",
"F  c #F09168",
"G  c #12560B",
"H  c #1A2D2D",
"J  c #572000",
"K  c #253E41",
"L  c #C05E3E",
"P  c #0D404A",
"I  c #401600",
"U  c #672C09",
"Y  c #5A2508",
"T  c #924B25",
"R  c #003D05",
"E  c #003904",
"W  c #7F3500",
"Q  c #763100",
"!  c #C9633E",
"~  c #C65E39",
"^  c #6A2A00",
"/  c #B45234",
"(  c #855C29",
")  c #132728",
"_  c #AE5B40",
"`  c #DA6A47",
"'  c #E06F4B",
"]  c #9B5A43",
"[  c #272F2A",
"{  c #2A4649",
"}  c #212D2A",
"|  c yellow",
" . c #FFA800",
".. c #FF2D00",
"X. c #515300",
"o. c #A55200",
"O. c #511C00",
"+. c #A65300",
"@. c #6D2B00",
"#. c #0B8818",
"$. c #7D3300",
"%. c #5C2300",
"&. c #015806",
"*. c #773100",
"=. c #003904",
"-. c #8C3E00",
";. c #491A00",
":. c #FFAC81",
">. c #944500",
",. c #FFA97D",
"<. c #A24F00",
"1. c #004404",
"2. c #005B06",
"3. c #863801",
"4. c #FFAF85",
"5. c #FFA579",
"6. c #33A74C",
"7. c #004E05",
"8. c #803500",
"9. c #732D00",
"0. c #176071",
"q. c #33A54B",
"w. c #F8F0EC",
"e. c #52731D",
"r. c #E9825A",
"t. c #F19269",
"y. c #005305",
"u. c #642802",
"i. c #CF6D43",
"p. c #146A66",
"a. c #055D20",
"s. c #9D4B00",
"d. c #EEA578",
"f. c #E47851",
"g. c #014806",
"h. c #F89D73",
"j. c #FBA076",
"k. c #3FAC58",
"l. c #793301",
"z. c #006402",
"x. c #495245",
"c. c #E89E77",
"v. c #1C932C",
"b. c #2D322F",
"n. c #F56D39",
"m. c #CA683C",
"M. c #94562A",
"N. c #BEC0C1",
"B. c black",
"V. c #667937",
"C. c #421600",
"Z. c #646933",
"A. c #196E7F",
"S. c #007C0A",
"D. c #FFCAAE",
"F. c #FC7535",
"G. c #AB7253",
"H. c #E7E6E6",
"J. c #D2C6C1",
"K. c #DF734C",
"L. c #F6996F",
"P. c #F08760",
"I. c #FD9B72",
"U. c #E48F67",
"Y. c #BC7344",
"T. c #EA734B",
"R. c #127086",
"E. c #90786D",
"W. c #85888B",
"Q. c #E0CDC0",
"!. c #232120",
"~. c #5E3A28",
"^. c #59632B",
"/. c #265C0E",
"(. c #706425",
"). c #7D3703",
"_. c #0A600C",
"`. c #229A36",
"'. c #C97656",
"]. c #196879",
"[. c #116A65",
"{. c #414238",
"}. c #2C943D",
"|. c #F97F4C",
" X c #7E4D33",
".X c #0B7A12",
"XX c #BEA99E",
"oX c #FCF8F6",
"OX c #16100D",
"+X c #6A422E",
"@X c #E7D6CB",
"#X c #C8CBCD",
"$X c #A26736",
"%X c #475D17",
"&X c #3A5C17",
"*X c #666863",
"=X c #FD8F58",
"-X c #636121",
";X c #316A71",
":X c #986A34",
">X c #FA8963",
",X c #EEA085",
"<X c #F6B399",
"1X c #196E29",
"2X c #FF9A66",
"3X c #1A535E",
"4X c #1E9C36",
"5X c #005D1E",
"6X c #AB6736",
"7X c #947D41",
"8X c #8F4513",
"9X c #C67F5A",
"0X c #FFC2A3",
"qX c #733A1C",
"wX c #E46838",
"eX c #A3715B",
"rX c #B49585",
"tX c #D7906D",
"yX c #F8DCD0",
"uX c #9F613E",
"iX c #9E9896",
"pX c #55731D",
"aX c #919293",
"sX c #7F5B47",
"dX c #63371E",
"fX c #FFA372",
"gX c #A7593A",
"hX c #F5A481",
"jX c #6C944E",
"kX c #EEBEA5",
"lX c #7E5C4F",
"zX c #1C5E26",
"xX c #7E6240",
"cX c #2E8927",
"vX c #648739",
"bX c #4B6C6E",
"nX c #FEB792",
"mX c #226A6C",
"MX c #3F7219",
"NX c #F77748",
"BX c #C76A3E",
"VX c #D89A7B",
"CX c #984F1F",
"ZX c #577021",
"AX c #A9836A",
"SX c #FDB795",
"DX c #3D8022",
"FX c #CDAD97",
"GX c #446A17",
"HX c #757677",
"JX c #A62701",
"KX c #9D3538",
"LX c #FF4800",
"PX c red",
"IX c #000C00",
"UX c #47704C",
/* pixels */
"                                                                                                                                ",
"                                                                                                                                ",
"                                                                                                                                ",
"                                                                                                                                ",
"                                                                                                                                ",
"                                                                                                                                ",
"                                                                                                                                ",
"                                                                                                                                ",
"                                                                                                                                ",
"                                                                                                                                ",
"                                                        3 j j q $                                                               ",
"                                                      $ w 4 r 5 k                                                               ",
"                                                    3 w N >.>.M X q +                                                           ",
"                                            6 o o o t 4 >.o.+.s.-.X 3 o o =                                                     ",
"                                            $ t X X N >.<.+.+.<.s.M 5 X W k                                                     ",
"                                          o q l 8.3.>.<.+.o.o.+.+.s.-.8.r w 3 +                                                 ",
"                                        = t l r 3.>.<.o.+.o.o.o.+.<.s.-.8.4 X 3                                                 ",
"                                      9 q 5 8.$.-.<.+.o.o.o.o.o.o.+.+.>.8.8.4 w k +                                             ",
"                                    + j l r $.$.-.s.+.o.o.o.o.o.o.+.o.>.8.$.).4 X z                                             ",
"                                  7 a ^ $.@.u.*.3.>.s.o.+.+.+.+.+.<.>.-.8.@.u.*.Q e 8 =                                         ",
"                                  O b %.*.%.O.@.$.8.-.<.<.<.<.<.<.>.3.$.*.%.O.9.@.2 . $                                         ",
"                                  O I %.$.9.u.O.%.9.8.3.-.-.-.-.-.3.*.u.O.%.@.l.@.;.x $                                         ",
"                                  O f %.$.$.9.dX+XM.M.M.8X8.$.3.T M.M. X~.U *.8.@.;.. $                                         ",
"                                  O f %.l.%.dXrXJ.Q.@XQ.G.$.9.M.FX@XQ.Q.XXsX%.9.@.;.. $                                         ",
"                                  O f %.*.O.~.J.oX#XN.N.AXCX8XuXXXN.N.H.w.E.;.@.@.;.. $                                         ",
"                                  O f %.*.O.~.J.#Xx.!.b.sX9Xd G.{.!.b.aXH.E.;.@.@.;.. $                                         ",
"                                  O I %.l.O.~.J.N.!.B.B.+XtXc.G.OXB.B.HXH.E.C.@.9.;.x $                                         ",
"                                  O b %.*.O.+XJ.N.b.B.OX XtXc.G.!.B.OXW.H.E.O.@.@.2 . $                                         ",
"                                  7 a n Y qXeX@XH.iXW.aXrXc.h.VXiXW.W.#Xw.XX Xu.J e 8 =                                         ",
"                                    + ; Y uXc.yXoXw.w.w.D.:.5.SXyXw.w.oXw.kX9XqXn 1                                             ",
"                                      t T '.4.0XD.D.<X,XhX:.:.:.,X<XD.D.0XnXU.gX5 9                                             ",
"                                    6 < L d j.5.,.,.t.f.P.L.h.t.f.r.j.:.,.5.F v / 9                                             ",
"                                    @ $ i ' r.h.:.,.5.L.r.K.K.f.t.j.,.:.5.P.p ` 9 +                                             ",
"                                      y & 5 $Xd I.,.5.2X|.wXwXT.=XfX,.5.t.Y.( ; 0 +                                             ",
"                                    + C * h &X$Xr.j.2X|.F.F.F.F.F.=X5.t.i.-XG Z , 7                                             ",
"                                  7 C R 1.7.&.%X:Xs |.n.n.n.n.n.n.NXP.Y.(./.y.g.* m 8 =                                         ",
"                                  & * 1.&.&.&.&.&X6Xi.m.m.m.m.m.m.i.BX(.G &.&.&.7.E m >                                         ",
"                                  & Z 1.&.2.y.g.h GXpXe.e.e.e.e.e.pXe./.1.7.2.2.7.=., >                                         ",
"                                  & * 1.&.2.y.=.g..X#.#.#.#.#.#.#.#.#._.=.g.&.2.7.=., >                                         ",
"                                  & * 1.&.2.y.=.h }.6.6.6.6.6.6.6.6.q.1X=.1.&.2.7.=., >                                         ",
"                                  & * 1.&.2.y.=.h }.6.q.q.q.q.q.q.6.q.1X=.1.&.&.7.=., >                                         ",
"                                  & * 1.&.2.y.=.g..X#.#.#.#.#.#.#.#.#._.=.g.&.2.7.=., >                                         ",
"                                  A V ^.V.V.V.Z.Z.ZXDXv.v.v.v.v.v.cXe.^.Z.Z.V.V.Z.V e $                                         ",
"                                  < ! d c.d.d.d.U.i.7Xk.k.k.k.k.k.jXY.s c.d.d.d.U.i.~ -                                         ",
"                                  < p P.:.4.4.4.I.T.7X}.4X`.`.`.4XvXi.>X:.4.:.4.I.T.u -                                         ",
"                                  < p r.,.:.,.5.t.i.(..XS.S.S.S.S.MX6Xs j.,.:.:.L.K.u -                                         ",
"                                  < p r.,.4.5.>XY.-X/.z.z.z.z.z.z._.%X:Xr.I.:.4.L.K.u -                                         ",
"                                @ i D s L.j.t.'.xXzX5Xa.a.a.a.a.a.5Xa.^.G.U.h.h.F v S c                                         ",
"                                  c i u K.T.'.*X;Xp.[.p.p.p.p.p.p.[.[.mXbXeXf.f.v < - 6                                         ",
"                                      i D _ lX;XR.R.A.0.0.0.0.0.0.].R.R.A.*X] L S -                                             ",
"                                      6 9 K : 0.A.A.0.: : : : : : 3X].A.].3X{ A c @                                             ",
"                                      @ 6 ) b.{.x.x.{.[ H P P K } b.x.x.x.b.H 0                                                 ",
"                                      @ 7 x ;.@.).).u.2 ; =   8 g O.*.).l.%.b O + @                                             ",
"                                    @ 8 . J @.$.3.3.u.2 a     0 g O.$.3.8.9.U n a o                                             ",
"                                    6 ; 2 %.*.*.*.*.%.2 ; @   0 g O.@.*.9.*.@.O.# %                                             ",
"                                    6 ; C.;.O.O.O.O.;.C.; @   0 g C.O.O.O.O.O.C.# 1                                             ",
"                                    @ O B # # # # # # B O @   % . # # # # # # # e y                                             ",
"                                    @ $ z 1 % % % % 1 z $ @   = y 1 % % % % % 1 y +                                             ",
"                                                            @                                                                   ",
"                                                                                                                                ",
"                                                                                                                                ",
"                                                                                                                                ",
"                                                                                                                                ",
"                                                                                                                                "
};
