/* XPM */
static char *result[] = {
/* columns rows colors chars-per-pixel */
"64 64 216 2 ",
"   c #080706",
".  c #3C1300",
"X  c #3F1400",
"o  c #3F1904",
"O  c #341C0D",
"+  c #361C0D",
"@  c #023204",
"#  c #073305",
"$  c #003504",
"%  c #003902",
"&  c #003803",
"*  c #003F03",
"=  c #0D3E07",
"-  c #1F2E2C",
";  c #143438",
":  c #242425",
">  c #33342E",
",  c #401500",
"<  c #401600",
"1  c #431700",
"2  c #441700",
"3  c #471800",
"4  c #401805",
"5  c #4A1C03",
"6  c #491A05",
"7  c #521E01",
"8  c #541F02",
"9  c #572000",
"0  c #5A2200",
"q  c #5B240D",
"w  c #4C2B19",
"e  c #5F3014",
"r  c #602501",
"t  c #632705",
"y  c #6B2704",
"u  c #682900",
"i  c #692B08",
"p  c #6C2C0D",
"a  c #732900",
"s  c #722E00",
"d  c #783100",
"f  c #7D3300",
"g  c #7D3400",
"h  c #7E3400",
"j  c #7F3500",
"k  c #773209",
"l  c #7F3308",
"z  c #703A13",
"x  c #7C361B",
"c  c #743D23",
"v  c #004604",
"b  c #064008",
"n  c #084B0B",
"m  c #005605",
"M  c #005A08",
"N  c #0D5C0C",
"B  c #0D531B",
"V  c #314B11",
"C  c #245F11",
"Z  c #335C14",
"A  c #036709",
"S  c #007706",
"D  c #327514",
"F  c #114C33",
"G  c #127320",
"H  c #0D603A",
"J  c #2C7F32",
"K  c #59411B",
"L  c #514D1B",
"P  c #54482D",
"I  c #60412D",
"U  c #73452E",
"Y  c #6D5635",
"T  c #5D6022",
"R  c #636A35",
"E  c #657935",
"W  c #113940",
"Q  c #1E4046",
"!  c #154249",
"~  c #10434D",
"^  c #164C52",
"/  c #105160",
"(  c #185D67",
")  c #156A6B",
"_  c #156577",
"`  c #226A74",
"'  c #404540",
"]  c #465348",
"[  c #4C5F5F",
"{  c #555657",
"}  c #53664F",
"|  c #756D4B",
" . c #416D72",
".. c #6A6E71",
"X. c #7D7E7F",
"o. c #803500",
"O. c #823600",
"+. c #833700",
"@. c #833604",
"#. c #833800",
"$. c #853800",
"%. c #843900",
"&. c #863900",
"*. c #873B01",
"=. c #8A3D00",
"-. c #8B3E00",
";. c #8C3E01",
":. c #873A09",
">. c #904100",
",. c #914200",
"<. c #934400",
"1. c #984800",
"2. c #9B4A00",
"3. c #A14E00",
"4. c #A65300",
"5. c #82472A",
"6. c #964629",
"7. c #9A482A",
"8. c #96572F",
"9. c #8E5437",
"0. c #AD4D21",
"q. c #A15335",
"w. c #B15333",
"e. c #B35536",
"r. c #B65738",
"t. c #B35B38",
"y. c #B15E3C",
"u. c #836329",
"i. c #916A2C",
"p. c #CC663F",
"a. c #D6633E",
"s. c #D5653E",
"d. c #DA643F",
"f. c #FF7C3B",
"g. c #856251",
"h. c #A6684A",
"j. c #B86143",
"k. c #BE6545",
"l. c #BF6645",
"z. c #B2714C",
"x. c #BB7956",
"c. c #C56641",
"v. c #D86742",
"b. c #D56C47",
"n. c #DA6E48",
"m. c #C77351",
"M. c #C87F5B",
"N. c #D2785C",
"B. c #E26D43",
"V. c #E46E45",
"C. c #E56F47",
"Z. c #E3724C",
"A. c #F27641",
"S. c #098016",
"D. c #0B8818",
"F. c #0E8B1C",
"G. c #1D8E30",
"H. c #239135",
"J. c #229E3B",
"K. c #2A9E3E",
"L. c #309945",
"P. c #2FA244",
"I. c #3CA34D",
"U. c #619D52",
"Y. c #7B9455",
"T. c #40AD59",
"R. c #BF8269",
"E. c #A18475",
"W. c #D0815E",
"Q. c #FF8446",
"!. c #E7815A",
"~. c #EA845B",
"^. c #EC865D",
"/. c #FF8E55",
"(. c #F7845B",
"). c #CB8A65",
"_. c #D78D68",
"`. c #CD9967",
"'. c #DE9E7F",
"]. c #E48F68",
"[. c #F28963",
"{. c #F9966B",
"}. c #FF9C69",
"|. c #EB9D78",
" X c #F79C72",
".X c #FCA278",
"XX c #FEA77B",
"oX c #177085",
"OX c #8E9193",
"+X c #9B9D9E",
"@X c #B39382",
"#X c #B7A8A0",
"$X c #AFB4B6",
"%X c #FFAC81",
"&X c #FDB58F",
"*X c #EEA993",
"=X c #EAAD92",
"-X c #FFBF9C",
";X c #DDC3B6",
":X c #EBC2AD",
">X c #FFCBAE",
",X c #EECABE",
"<X c #FFD4BC",
"1X c #D4D5D6",
"2X c #EAD0C3",
"3X c #FEE0D2",
"4X c #F7E1DB",
"5X c #FFE9DB",
"6X c #DFE0E0",
"7X c #EBE8E6",
"8X c #F0EFEF",
"9X c #FFF1E7",
"0X c #FAF9F8",
"qX c #FFFBFA",
"wX c #FFFEFE",
"eX c None",
/* pixels */
"eXeXeXeXeXeXeXeXeXeXeXeXeXeXeXeXeXeXeXeXeXeXeXeXeXeXeXeXeXeXeXeXeXeXeX@.k f f f f h g eXeXeXeXeXeXeXeXeXeXeXeXeXeXeXeXeXeXeXeXeX",
"eXeXeXeXeXeXeXeXeXeXeXeXeXeXeXeXeXeXeXeXeXeXeXeXeXeXeXeXeXeXeXeXeXeXeXo.#.$.$.$.$.%.@.eXeXeXeXeXeXeXeXeXeXeXeXeXeXeXeXeXeXeXeXeX",
"eXeXeXeXeXeXeXeXeXeXeXeXeXeXeXeXeXeXeXeXeXeXeXeXeXeXeXg eXeXeXeXeXeX@.-.<.<.<.<.<.<.-.:.eXeXeXeXeXeXeXeXeXeXeXeXeXeXeXeXeXeXeXeX",
"eXeXeXeXeXeXeXeXeXeXeXeXeXeXeXeXeXeXeXeXeXeXeXeXeXg j %.h h h h h h %.<.3.3.3.3.3.3.<.%.o.eXeXeXeXeXeXeXeXeXeXeXeXeXeXeXeXeXeXeX",
"eXeXeXeXeXeXeXeXeXeXeXeXeXeXeXeXeXeXeXeXeXeXeXeXeX+.;.;.;.;.;.;.*.O.$.>.2.3.4.4.4.4.1.>.&.:.eXeXeXeXeXeXeXeXeXeXeXeXeXeXeXeXeXeX",
"eXeXeXeXeXeXeXeXeXeXeXeXeXeXeXeXeXeXeXeXeXo.+.+.-.,.2.2.2.2.2.2.>.$.o.$.;.1.3.4.4.4.3.2.<.&.o.eXeXeXeXeXeXeXeXeXeXeXeXeXeXeXeXeX",
"eXeXeXeXeXeXeXeXeXeXeXeXeXeXeXeXeXeXeXeX@.%.$.$.=.<.2.3.3.3.3.2.<.$.f f O.;.2.3.4.4.4.4.2.>.%.:.eXeXeXeXeXeXeXeXeXeXeXeXeXeXeXeX",
"eXeXeXeXeXeXeXeXeXeXeXeXeXeXeXeXeXeXeX@.-.<.<.<.<.<.<.>.>.>.<.>.=.O.f f j $.;.1.3.4.4.4.3.1.<.-.@.g eXeXeXeXeXeXeXeXeXeXeXeXeXeX",
"eXeXeXeXeXeXeXeXeXeXeXeXeXeXeXeXeXeXo.%.<.3.3.3.2.>.$.O.O.O.O.O.O.o.j j j j O.=.1.3.4.4.4.4.3.<.%.h eXeXeXeXeXeXeXeXeXeXeXeXeXeX",
"eXeXeXeXeXeXeXeXeXeXeXeXeXeXeXeXeX:.-.>.<.1.2.2.<.=.o.f f f f f f j j o.o.j j $.>.2.3.4.4.4.3.<.$.f eXeXeXeXeXeXeXeXeXeXeXeXeXeX",
"eXeXeXeXeXeXeXeXeXeXeXeXeXeXeXeXo.-.<.2.<.=.*.*.*.O.j f j j j j j j j o.o.o.o.O.$.;.1.3.4.4.3.<.$.f eXeXeXeXeXeXeXeXeXeXeXeXeXeX",
"eXeXeXeXeXeXeXeXeXeXeXeXeXeXeXeXh O.<.2.>.O.f f j j j j j o.o.o.o.o.f d s s s s s d *.1.3.3.2.,.&.j eXeXeXeXeXeXeXeXeXeXeXeXeXeX",
"eXeXeXeXeXeXeXeXeXeXeXeXeXeXeXeX8 u O.;.*.j f f f j j o.O.O.O.O.O.O.d u 9 7 7 7 7 9 s *.>.>.<.+.eXeXeXeXeXeXeXeXeXeXeXeXeXeXeXeX",
"eXeXeXeXeXeXeXeXeXeXeXeXeXeXeX4 o 9 s O.O.j j j j j j f f f f f f f s r 5 5 5 5 3 5 t k #.#.&.eXeXeXeXeXeXeXeXeXeXeXeXeXeXeXeXeX",
"eXeXeXeXeXeXeXeXeXeXeXeXeXeXeX1 8 r s f o.j j j o.O.j d u r r r r r u z c U U c p p y a @.@.g eXeXeXeXeXeXeXeXeXeXeXeXeXeXeXeXeX",
"eXeXeXeXeXeXeXeXeXeXeXeXeXX X 0 p d f j j j j j o.O.f u 9 3 3 3 2 3 e 9.z.x.x.z.q.7.@.eXeXeXeXeXeXeXeXeXeXeXeXeXeXeXeXeXeXeXeXeX",
"eXeXeXeXeXeXeXeXeXeXeXeXeX. 3 r d O.O.o.o.o.o.j f d s i e e I I I I g.R.'.'.'._.W.R.N.eXeXeXeXeXeXeXeXeXeXeXeXeXeXeXeXeXeXeXeXeX",
"eXeXeXeXeXeXeXeXeXeXeXeXeX. 3 r d O.O.O.O.O.O.o.d u r z 9.h.@X#X#X#X;X2X3X:X'.'.=X,X4XqXeXeXeXeXeXeXeXeXeXeXeXeXeXeXeXeXeXeXeXeX",
"eXeXeXeXeXeXeXeXeXeXeXeXeX. 3 r d o.f f f f f j s 9 5 c z.'.2X8X8X7X7X7X7X:X'.'.;X7X0X0XwXeXeXeXeXeXeXeXeXeXeXeXeXeXeXeXeXeXeXeX",
"eXeXeXeXeXeXeXeXeXeXeXeXeX. 3 r d d u r r u s d s 7 5 c x.=X3X0X6X$X+XOX+X@X'.'.@X+X1X8XwXeXeXeXeXeXeXeXeXeXeXeXeXeXeXeXeXeXeXeX",
"eXeXeXeXeXeXeXeXeXeXeXeXeX. 3 r d s 9 5 3 5 r s s 9 5 c x.=X3X8X$X{ : : > g._.).Y ' OX6XwXeXeXeXeXeXeXeXeXeXeXeXeXeXeXeXeXeXeXeX",
"eXeXeXeXeXeXeXeXeXeXeXeXeX. 2 9 u u r 7 2 , 7 s s 9 5 c x.=X3X7X+X:       U _.M.w   ..1XwXeXeXeXeXeXeXeXeXeXeXeXeXeXeXeXeXeXeXeX",
"eXeXeXeXeXeXeXeXeXeXeXeXeX, , 3 7 t x x r 2 7 s d 9 5 5.M.&X5X7XOX:       U _.M.w   ..1X3X*Xv.eXeXeXeXeXeXeXeXeXeXeXeXeXeXeXeXeX",
"eXeXeXeXeXeXeXeXeXeXeXeXeXo < < 5 p 6.q.x 7 9 s s 7 5 5._.-X5X8X+X'     : g._.).I > X.6X3X|.b.v.eXeXeXeXeXeXeXeXeXeXeXeXeXeXeXeX",
"eXeXeXeXeXeXeXeXeXeXeXeXeX4 6 q k 6.y.l.q.x i r 9 , 2 5._.-X5X0X1XOX....X.@X|.'.E.X.$X8X5X=X~.Z.v.eXeXeXeXeXeXeXeXeXeXeXeXeXeXeX",
"eXeXeXeXeXeXeXeXeXeXeXeXeXeXeX:.7.y.M.M.l.q.x r 2 . 5 5._.-X3X0X8X6X1X1X1X:X&X&X;X6X8X0X5X-X X~.b.a.eXeXeXeXeXeXeXeXeXeXeXeXeXeX",
"eXeXeXeXeXeXeXeXeXeXeXeXeXeXeXw.r.l.W._.m.y.6.c e e c q.].&X<X5X9X9X9X9X5X<X&X-X<X9X9X5X3X-XXX^.n.s.eXeXeXeXeXeXeXeXeXeXeXeXeXeX",
"eXeXeXeXeXeXeXeXeXeXeXeXeXeXeXw.r.l.W._.m.y.y.h.h.h.h.M.|.%X-X>X>X>X>X>X>X-X&X&X-X>X>X>X-X&XXX^.n.s.eXeXeXeXeXeXeXeXeXeXeXeXeXeX",
"eXeXeXeXeXeXeXeXeXeXeXeXeXeXeXw.e.k.M.W.m.l.l.W._._._.|..X%X%X%XXXXXXXXXXXXX.X.XXXXXXXXXXXXX X~.B.b.eXeXeXeXeXeXeXeXeXeXeXeXeXeX",
"eXeXeXeXeXeXeXeXeXeXeXeXeXeXeXeXw.j.c.m.m.m.W._.|.|.|..XXX%XXXXX}./././././././././.(.^.^.^.^.Z.v.v.eXeXeXeXeXeXeXeXeXeXeXeXeXeX",
"eXeXeXeXeXeXeXeXeXeXeXeXeXeXeXeXeXeXt.l.m.W._._._.|.XX%X%X%X%XXX}.Q.f.f.f.f.f.f.f.f.A.C.n.n.B.v.eXeXeXeXeXeXeXeXeXeXeXeXeXeXeXeX",
"eXeXeXeXeXeXeXeXeXeXeXeXeXeXeXeXeXeXw.t.b.W.W.W._.|.XX%X%X%X%XXX}./.Q.Q.Q.Q.Q.Q.f.A.B.d.d.d.N.eXeXeXeXeXeXeXeXeXeXeXeXeXeXeXeXeX",
"eXeXeXeXeXeXeXeXeXeXeXeXeXeXeXeXeXeXeXeXj.k.l.l.m.].XX%X%X%X%X%XXX}.}.}.}.}.}./.A.C.V.eXeXeXeXeXeXeXeXeXeXeXeXeXeXeXeXeXeXeXeXeX",
"eXeXeXeXeXeXeXeXeXeXeXeXeXeXeXeXeXeXeXeXw.7.8.8.y.W. XXX.X.X.X.X.X.X.X.X.X.X.X].n.c.w.eXeXeXeXeXeXeXeXeXeXeXeXeXeXeXeXeXeXeXeXeX",
"eXeXeXeXeXeXeXeXeXeXeXeXeXeXeXeXeXeXeXeXK I L L Y z.!.[.[.[.[.[.[.[.[.[.[.[.[.W.8.Y K eXeXeXeXeXeXeXeXeXeXeXeXeXeXeXeXeXeXeXeXeX",
"eXeXeXeXeXeXeXeXeXeXeXeXeXeXeXeXeXeXeXeX# = b n Z u.p.n.n.n.n.n.n.n.n.n.n.n.n.y.L = # eXeXeXeXeXeXeXeXeXeXeXeXeXeXeXeXeXeXeXeXeX",
"eXeXeXeXeXeXeXeXeXeXeXeXeXeXeXeXeXeXeXeX% * v m N T u.8.8.8.i.i.i.i.i.i.i.i.i.T V * % eXeXeXeXeXeXeXeXeXeXeXeXeXeXeXeXeXeXeXeXeX",
"eXeXeXeXeXeXeXeXeXeXeXeXeXeXeXeXeXeX# $ = n m m M C Z V V V Z D D D D D D D D D N n = $ # eXeXeXeXeXeXeXeXeXeXeXeXeXeXeXeXeXeXeX",
"eXeXeXeXeXeXeXeXeXeXeXeXeXeXeXeXeXeX@ & v m M M M M m v & b A S.D.D.D.D.D.D.D.S.A m v & @ eXeXeXeXeXeXeXeXeXeXeXeXeXeXeXeXeXeXeX",
"eXeXeXeXeXeXeXeXeXeXeXeXeXeXeXeXeXeX$ & v m M M M M m v & v G J.J.J.J.J.J.J.J.G.G M v & $ eXeXeXeXeXeXeXeXeXeXeXeXeXeXeXeXeXeXeX",
"eXeXeXeXeXeXeXeXeXeXeXeXeXeXeXeXeXeX@ & v m M M M M m v & n J I.T.T.T.T.T.T.T.L.G M v & @ eXeXeXeXeXeXeXeXeXeXeXeXeXeXeXeXeXeXeX",
"eXeXeXeXeXeXeXeXeXeXeXeXeXeXeXeXeXeX@ & v m M M M M m v & n G K.P.P.P.P.P.P.P.H.G M v & @ eXeXeXeXeXeXeXeXeXeXeXeXeXeXeXeXeXeXeX",
"eXeXeXeXeXeXeXeXeXeXeXeXeXeXeXeXeXeX@ & v m M M M M m v & b A D.F.F.F.F.F.F.F.S.A m v & @ eXeXeXeXeXeXeXeXeXeXeXeXeXeXeXeXeXeXeX",
"eXeXeXeXeXeXeXeXeXeXeXeXeXeXeXeXeXeX@ & v m M M M M m v & b A S.F.D.D.D.D.D.D.S.A m v & @ eXeXeXeXeXeXeXeXeXeXeXeXeXeXeXeXeXeXeX",
"eXeXeXeXeXeXeXeXeXeXeXeXeXeXeXeXeXeX@ & v m m m m m m v & b G J.K.K.K.K.K.K.K.G.G M v & @ eXeXeXeXeXeXeXeXeXeXeXeXeXeXeXeXeXeXeX",
"eXeXeXeXeXeXeXeXeXeXeXeXeXeXeXeXeXeX@ b n N N N N N N n b B J T.T.T.T.T.T.T.T.L.G M v b @ eXeXeXeXeXeXeXeXeXeXeXeXeXeXeXeXeXeXeX",
"eXeXeXeXeXeXeXeXeXeXeXeXeXeXeXeXeXeXP L T E E E E E E R R R | Y.U.I.P.P.P.P.P.H.G M V L P eXeXeXeXeXeXeXeXeXeXeXeXeXeXeXeXeXeXeX",
"eXeXeXeXeXeXeXeXeXeXeXeXeXeXeXeXeXeXt.y.x.`.`.`.`.`.`.`.`.).M.z.E J F.F.F.F.F.S.A N L 8.t.eXeXeXeXeXeXeXeXeXeXeXeXeXeXeXeXeXeXeX",
"eXeXeXeXeXeXeXeXeXeXeXeXeXeXeXeXeXeXd.C.[.XX%X%X%X%X%X%X%X.X(.s.u.D S S S S S A M B Y l.d.eXeXeXeXeXeXeXeXeXeXeXeXeXeXeXeXeXeXeX",
"eXeXeXeXeXeXeXeXeXeXeXeXeXeXeXeXeXeXd.C.[.XX%X%X%X%X%X%X%X.X(.s.u.C A A A A A A B F Y l.Z.eXeXeXeXeXeXeXeXeXeXeXeXeXeXeXeXeXeXeX",
"eXeXeXeXeXeXeXeXeXeXeXeXeXeXeXeXeXeXd.n.[..X%X%X%X%X%X%X%X X!.l.u.C M M M M M B F ! Y k.V.eXeXeXeXeXeXeXeXeXeXeXeXeXeXeXeXeXeXeX",
"eXeXeXeXeXeXeXeXeXeXeXeXeXeXeXeXeXeXd.n.[.XX%X%X%X%X%X.X{.].x.g.} H H H H H H H ^ ! P j.eXeXeXeXeXeXeXeXeXeXeXeXeXeXeXeXeXeXeXeX",
"eXeXeXeXeXeXeXeXeXeXeXeXeXeXeXeXeXeXd.n.[.XX%X%X%X%XXX{.!.m.g. .` ) ) ) ) ) ) ( ^ ~ Q eXeXeXeXeXeXeXeXeXeXeXeXeXeXeXeXeXeXeXeXeX",
"eXeXeXeXeXeXeXeXeXeXeXeXeXeXeXeXeXeXv.Z.~. X X X X X X!.l.g.[ _ _ _ _ oXoXoXoX_ / ~ W eXeXeXeXeXeXeXeXeXeXeXeXeXeXeXeXeXeXeXeXeX",
"eXeXeXeXeXeXeXeXeXeXeXeXeXeXeXeXeXeXeXeXV.~.!.!.!.^.!.z.| ] ^ / / / ( _ oXoXoX_ / ~ W eXeXeXeXeXeXeXeXeXeXeXeXeXeXeXeXeXeXeXeXeX",
"eXeXeXeXeXeXeXeXeXeXeXeXeXeXeXeXeXeXeXeXv.c.p.s.s.s.p.9.' ! ! ~ ! ! ^ ( ` ` ` ( ^ ~ W eXeXeXeXeXeXeXeXeXeXeXeXeXeXeXeXeXeXeXeXeX",
"eXeXeXeXeXeXeXeXeXeXeXeXeXeXeXeXeXeXeXeXeX7.6.0.0.0.0.c > - ; Q ; - > ' ] ] ] ' > - W eXeXeXeXeXeXeXeXeXeXeXeXeXeXeXeXeXeXeXeXeX",
"eXeXeXeXeXeXeXeXeXeXeXeXeXeXeXeXeXeXeXeX4 8 i l ;.>.*.i 5 O eXeXeX+ 5 e z z z e w o 4 eXeXeXeXeXeXeXeXeXeXeXeXeXeXeXeXeXeXeXeXeX",
"eXeXeXeXeXeXeXeXeXeXeXeXeXeXeXeXeXeXeXeX1 8 r s j O.f u 5 X eXeXeXX 5 u o.$.O.d r 8 1 eXeXeXeXeXeXeXeXeXeXeXeXeXeXeXeXeXeXeXeXeX",
"eXeXeXeXeXeXeXeXeXeXeXeXeXeXeXeXeXeXeX1 0 i s d o.O.f u 5 X eXeXeXX 5 u o.$.O.j d p 0 1 eXeXeXeXeXeXeXeXeXeXeXeXeXeXeXeXeXeXeXeX",
"eXeXeXeXeXeXeXeXeXeXeXeXeXeXeXeXeXeX1 5 r s d d d f d r 5 X eXeXeXX 5 r d f d d d s r 5 1 eXeXeXeXeXeXeXeXeXeXeXeXeXeXeXeXeXeXeX",
"eXeXeXeXeXeXeXeXeXeXeXeXeXeXeXeXeXeXX 2 7 r r r r r r 7 3 X eXeXeXX 3 7 r r r r r r 7 2 X eXeXeXeXeXeXeXeXeXeXeXeXeXeXeXeXeXeXeX",
"eXeXeXeXeXeXeXeXeXeXeXeXeXeXeXeXeXeX1 , 2 3 3 3 3 3 3 2 , X eXeXeXX , 2 3 3 3 3 3 3 2 , 1 eXeXeXeXeXeXeXeXeXeXeXeXeXeXeXeXeXeXeX",
"eXeXeXeXeXeXeXeXeXeXeXeXeXeXeXeXeXeX1 , . . . . . . . . , X eXeXeXX , . . . . . . . . , 1 eXeXeXeXeXeXeXeXeXeXeXeXeXeXeXeXeXeXeX"
};
