/* XPM */
static char *_44092a3190048b5872568ad135b76f3djTDtlGEPBw0T9io[] = {
/* columns rows colors chars-per-pixel */
"64 64 130 2 ",
"   c white",
".  c #E3E6E8",
"X  c #E0E6EB",
"o  c #DDDFE2",
"O  c #DFE1E2",
"+  c #E2E6EA",
"@  c #E3E8EE",
"#  c #E1E4E7",
"$  c #DFE2E7",
"%  c #E0E3E5",
"&  c #E3E7EB",
"*  c #E5EDF4",
"=  c #E1E7ED",
"-  c #E5ECF1",
";  c #E2E2E2",
":  c #DDDDDF",
">  c #F0E3E4",
",  c #E4E9EB",
"<  c #E5EBEF",
"1  c #DBDBDD",
"2  c #E9EDEE",
"3  c #DFE0E5",
"4  c #DCDFE4",
"5  c #E3E5E5",
"6  c #E7EFF6",
"7  c #DFE3EA",
"8  c #D9D8D9",
"9  c #E3EAF1",
"0  c #ECDAE7",
"q  c #F8F8F9",
"w  c #DDDCDA",
"e  c #EEE1E2",
"r  c #DDE2E6",
"t  c #D9D4D2",
"y  c #DFDFDE",
"u  c #EADCDD",
"i  c #E9F2F7",
"p  c #F5F4F3",
"a  c #C1C2C8",
"s  c #BEBDC3",
"d  c #ECDEE0",
"f  c #D1D5DB",
"g  c #DBDCE1",
"h  c #E8F0F2",
"j  c #F1F7F9",
"k  c #E7EAEB",
"l  c #5C493B",
"z  c #F1E3EF",
"x  c #7E7169",
"c  c #F5EBEB",
"v  c #F2E6E7",
"b  c #EEDDEA",
"n  c #E9DAD9",
"m  c #FEFFFF",
"M  c #E8E7E1",
"N  c #F8FDFE",
"B  c #EBD7E4",
"V  c #D3C9C7",
"C  c #E7E5DD",
"Z  c #CBCBCD",
"A  c #D8CFCB",
"S  c #624D3E",
"D  c #A89E9B",
"F  c #584537",
"G  c #6F5C53",
"H  c #E6D1DC",
"J  c #CDD2D7",
"K  c #C3C5CC",
"L  c #EFF2F3",
"P  c #E9D5E1",
"I  c #988E86",
"U  c #A1978E",
"Y  c #D8D6D6",
"T  c #CCBFC1",
"R  c #CBCED3",
"E  c #9F9389",
"W  c #9C9086",
"Q  c #84776F",
"!  c #E4E0D8",
"~  c #B6B4B8",
"^  c #776A64",
"/  c #E3E1DC",
"(  c #BBAEB1",
")  c #867C75",
"_  c #F0EFED",
"`  c #FDFCFC",
"'  c #C9C7C4",
"]  c #C6C8D0",
"[  c #F0ECE5",
"{  c #EBE9E6",
"}  c #A79A93",
"|  c #E0DBD4",
" . c #8B837E",
".. c #75665E",
"X. c #B2AFB3",
"o. c #B7B7BD",
"O. c #9B9597",
"+. c #938A84",
"@. c #DECCD8",
"#. c #D2D0D5",
"$. c #B9BAC1",
"%. c #E8D4D4",
"&. c #D6D8DE",
"*. c #F7EFF0",
"=. c #B2A3A8",
"-. c #8F8178",
";. c #66544B",
":. c #D2D2CF",
">. c #ADAAAB",
",. c #7B6963",
"<. c #F0DFDB",
"1. c #DFD4CE",
"2. c #A09C9C",
"3. c #E0CDCE",
"4. c #C2BFBC",
"5. c #D4DCE4",
"6. c #AEA9A0",
"7. c #BEADBA",
"8. c #A3A4A5",
"9. c #C2BAB3",
"0. c #543D4A",
"q. c #4F3C2C",
"w. c #DED6D6",
"e. c #A08E9B",
"r. c #F6EAF6",
"t. c #D0C3D1",
"y. c #97838F",
"u. c #938C90",
"i. c #44301F",
"p. c #D4DBD6",
/* pixels */
"r 4 3 # @ = @ X X = X $ 4 $ X = $ 4 = - q   I ^ @.u P H B B H z b P B H b z q ` G O.s R 7 4 4 3 1 4 7 o : g o - 6 9 6 6 = 7 # 3 ",
"8 $ $ = 9 9 = = = 4 X $ $ $ 7 X 4 r X = q   I ,.@.z 0 B 0 0 H b b 0 P H b B r.  Q +.a f 9 7 8 8 &.7 7 7 : 1 3 O @ - * - 3 : % 1 ",
"1 7 X 9 9 - = = X $ = r @ 7 7 $ $ X X = q   W ..t.b b b b P P 0 B B H b B P r.  W  .K f @ 4 Y Y 8 1 8 8 8 g 3 w 1 # X @ o 1 o 8 ",
"8 X 9 * 9 & % X X @ X X + $ 7 $ 4 3 X 9 q   E ,.t.B b 0 0 0 H B H P B P 0 B z   E  .] f 7 g 4 g #.Y Y Y g 3 o 8 8 Y 8 r o o : 1 ",
"8 X * - * & + # + 7 3 3 r $ 7 $ g X = < q   I ^ t.3.P 0 0 0 P H H @.H H H P z   E ) K J r 4 4 &.#.Y &.4 g 4 : Y 8 8 Y &.$ % 1 8 ",
"8 r 9 9 - 9 + + . o : o o 7 $ 4 $ = r $ L   W ^ @.0 P @.@.P P H @.3.@.H @.H z   U ) $.a &.4 4 4 g &.g g g 4 : Y t 8 8 Y 4 $ o 1 ",
"3 r @ @ X = # 1 :.' a s s s s s a K a K &.  U ,.t.H P 3.@.P H H H @.H @.@.H 0   E x o.X.s a a K K s s s a a Z 1 Y #.&.g 7 r X $ ",
"$ 7 X @ = $ O t 4.4.a K Z R J f J f J &.r N x Q t.=.7.( =.7.7.( ( 7.7.7.7.7.T r.I ..] s K ] K K ] a a s s s X.~ R o r @ + $ @ @ ",
"X 3 X * + 8 2 / 8 4.6. .^ x x x x ^ ..^ ) ..i.G  .e.e.e.e.e.e.y.y.y.y.y.y.y.e.7.G q.x u.u.O.O.O.O.O.O.2.>.X.o.X.~ 4 $ + + $ X @ ",
"* $ = * O : j m 9.l } E I E E W U E W E +.} ,.i.S Q ,.G S l S l l S F F F l F F i.G U } } } } } U U U U 6.Q ;.$.X.f @ * @ X * * ",
"6 r 4 $ g . j   +.,.`           ` `         V ;.# N ` q p p p p p p _ L L L j ' F s                         -.8.a f < = = 9 6 6 ",
"6 $ 1 4 3 . j   } Q :./ / C ! | 1.A t / M m _ I g % p q q q q p q q m m N N N j S 2.#.o o . y ; 5 5 , < 2   }  .] #.% $ 9 9 i i ",
"* 3 1 o : . q   D +.Y { { { C C C | C C C   C I J :.5 w w.w w w 1 : # & , j N 2 l O.g 3 . , 5 ; k y . , O   D x ] ' 3 7 9 * * * ",
"& g : 8 8 . q   D +.Y M { M C M M C ! / C   | +.Z R , ; % & + O y w O # 4 2 m _ l O.g 3 . ; ; k k ; y 5 5   4.) a a 7 7 @ @ @ & ",
"9 4 4 O w . q   }  .:.C M M M M M ! ! M !   t ) Z Z & # + @ @ # O w % O 1 <   L F O.8 : O 5 2 k . 2 ; ; 5   :. .s ] $ = @ @ @ = ",
"7 $ 7 @ # . q   D u.V | | | ! C C M C ! | ` t -.Z Z . % . # X , . w y 1 1 2 m p F O.g O , h , . k 2 5 5 5   p. .s a g 7 9 9 9 = ",
"g $ @ @ 9 , q   D u.T 1.1.1.! / / M C C /   C +.R R < , 5 ; % @ < ; w 8 g h m _ S O.1 . . k k k k h 2 O 5   p. .s a 8 4 9 9 * # ",
"3 7 @ @ 9 . q   D +.4.1.1.! C ! ! / ! / M   { I J Z , , y y O & < k O 8 g k q k S 2.g . . k 2 k ; k k ; h   p. .s 4.#.f 7 @ 9 4 ",
"3 $ 7 9 3 + q   D  .T | 1.| ! C C C / C C m { I J Z k . ; ; < * - - < # o 2 m _ F 2.o & . , , 2 5 . ; , <   :. .s 4.#.&.&.7 $ 4 ",
"g f 4 7 g 7 2 q D  .T | 1.| / ! / ! / M M   M I R Z ; # 5 O - 6 h - h < : 2   _ F O.1 # . . k h 2 2 k 2 ,   :.) a s Z #.f &.&.&.",
"o.o.$.a s a #.j D  .( t / C C | { M { { M ` { I R Z y O , ; < - h h < , 8 k   _ ;.u.Z 2 k L j j j L j h h   ' Q $.o.~ X.~ o.o.o.",
"J R ] ] ] Z f & ) ) >.~ 4.4.9.4.' ' ' ' ' p 9.) J :.; y + # ; - i h h < 8 5 `   I u.X.s K J f f f J J R f m 6.^ R a K ] K a ] R ",
"^ ..^ ^ ^ ..x ;.i.;.I O.O.U U O.U 2.2.2.6.6.;.>.R g 5 ; k + + h 6 6 h k w y q   D l 2.O.2.8.8.8.8.8.8.8.>.J ) q.^ ^ ^ ^ ^ ..^ ^ ",
"E E U U E W W U G i.G U I I +.) x x x ) } W 9., #.; y 5 5 ; . < - i 2 ; O : j   q D } x S l S S S l S S S F q.F -.E W I W E W I ",
"                E ..j               ` `     p . # ; : 5 ; y w . h 2 5 % % # < `       m p p p p p p p L L y F W                 ",
"u u n u u u *.  I ) * + q q q q q N p L 2 ; ; % + , # # ; / y O & < , & + & + @ h L q N m m     m   m N N m ) =.t w.| u n w.n 1.",
"n e d e > u _   W Q 5.&.< ; w 4 3 ; w O O 1 : : # , # % . 5 w 5 . $ @ , # & . + # 7 X + # = - - - - X L `   U D t n %.n d n n u ",
"u d c > > d v   I Q 5.5.* O w.: O w Y 8 % 1 % < . + + # 5 y % . % O & . # & . & & 4 # . - , < * - $ g h m   D } V > > e u d > e ",
"e u > e e d c   I Q 5.5.@ O w.1 : 1 8 8 O : # - + < < & . O X # % % . . . ; 3 # y 1 + % X , & - X % 1 2 `   D } V c u d d d d e ",
"d u d > > > c   I Q 5.f # o w o o : O : O % y r * < @ X 3 + $ $ O % & @ < . @ , & 5 % + # @ + + $ $ o , `   D } t c e > e e d d ",
"e u e d > d c   W Q f f 7 $ g X 3 O o O % # : # . % $ # % O $ 3 . & & X < i 6 # & & . % % . # 8 : o r 2 `   D D w.*.c c > e e e ",
"e u u n > d v   +.x f J $ O r @ 3 o 1 X X @ & 3 # . o % ; y # & . o 3 - 6 6 6 < + # # 3 3 ; # # # o o . `   U D w.*.c v > d d d ",
"d e d n e > c   +.x J R 7 3 + + ; y 3 # X < @ 3 < # 3 3 o . , O : % + - 6 i 6 6 @ & # & # o & + & @ X . `   E D w.*.v v e n u u ",
"d u d u e e v   W x R J 7 4 o o $ 3 . @ < 6 9 & + @ - o o . O $ O # + @ h * * - & & + & . O = + + @ < 2 q   U } t c > c > u d e ",
"u u d u d n v   +.x ] R : o 1 1 g g @ 6 6 6 * * + @ @ # 3 ; y + + @ # # * i < & + @ + + + % < # & . o < N   U D A d d > n e u e ",
"n n u u d d >   I x K K 1 4 g 1 &.1 + 6 < * 6 - $ + O % 3 O . & @ @ + + < & + 3 # & @ + % + 6 & < # r < `   E } A e u d n u d u ",
"%.%.w.%.3.d c   W ..s s 4 4 3 g 8 4 O & - * * % 1 O : Y 3 # = < < @ & < 3 # + $ # + @ . # < < - < < - j      .D A > u d u u d %.",
"%.3.3.3.n u e   E ..o.X.K Z ' Z Z #.Z Z &.4 @ % 1 o w 8 $ + < 9 - @ @ @ # @ $ @ & + 3 g r r r 4 4 4 r - N   ) D V v d d d d d %.",
"T T 9.T V T V ` W x a >.>.X.X.~ $.s ~ ~ X.>.o.Z o : 1 8 $ < * - , 5 + = @ @ + # f K a s s a K a a K ] f 6 N ..=.( T V T T T V T ",
"=.=.=.=.( ( T z -.G o.>.X.X.~ ~ ~ ~ ( X.~ s ~ >.Z : 8 Y $ - - * < . . + & 3 . g R &.f ] K R R J J R J f 5.p.F I T 7.7.( ( ( =.=.",
"G G G G G G G ,.l q.S G G ;.l l S S l F G ) +.$.~ 1 1 8 : @ < - < + + # 3 : 2 k &.+.I Q ,.^ x Q ) ) x ^ G F q.F ....G G G G G ;.",
"U E W E W I U Q i.,.w.d { _ _ _ [ c { _ [ ! ..8.$.f + 3 3 = @ + & + y w 8 ; k m U x e { { { { { { { { [ _ p x l E E E E W W E E ",
"              N F ;.A t w y | | w w.w.w {   9.Q K R < $ 3 X = = # O w.t t ; _ _ Q ( > e > > > c v v c c *.  }  .                ",
"2 2 h - 2 L _ N ..0.T V A A t t w.1.t t Y q C +.a ] @ 7 3 3 * < 1 o w w.8 M p 5 F D %.n v <.n > > > v e n   6. .= X L 2 ; k k k ",
"o r 4 r r 2 p N ..0.' V V A A w.A A A t t _ M x s R * 9 $ $ * # w % + w w _ q _ l D n u > v <.<.c *.c v u   6. .5.5.6 # 8 O o 4 ",
"# O : r X h q q ^ 0.T V V V A t A A A t t [ [ G $.R * * $ g r 1 3 % O O 3 L m _ S =.d e <.<.> *.c c *.v d   ( +.5.&.i * # . & , ",
"% y : o 7 i m q ..0.' V V V t 1.A t t Y Y M [ F o.R * * 7 8 g 3 O O O + $ L m 2 F =.v > e n v c c *.c > e   9.+.f 5.i * @ , % # ",
"# y O 9 9 i m m x 0.T T V t t A t y y w t C [ l s ] @ 9 $ 8 : : : o : $ $ L m _ F =.z e %.u e v v c c v >   9. .f &.- X @ , # + ",
"# O r * 9 i m   ) 0.T V A t t A w y w w t C [ S $.K 3 # 1 1 8 8 : o : 4 g L m L l =.> %.%.> c v <.<.<.d e   4. .f J = 7 @ % O o ",
"3 # o 9 = j m   ) 0.' V V A t t w w w y Y ! [ S $.K r X g 1 : w 1 3 g g g L m L l D n n d v v <.%.%.n e e   '  .R Z % 4 7 % : 1 ",
"o 7 % % 9 j m   ) 0.' V V V t w y / w w 8 M [ F $.K g r 4 $ @ . ; % : o $ L m L F } 3.n e e > n %.n e <.n   4. .] Z 1 O $ o y : ",
"% & $ X 9 i `   I 0.T A V A | y ; / / / t M _ l o.a a a ] J J f R Z Z Z R r N _ l e.3.u > > v e <.<.<.> >   6.) f J o # o g # o ",
"# O o # , i `   E 0.D ( 9.T V :.:.:.:.' 9.t C S $.a $.o.$.a a ] a s s s a J * L S e.T 3.w.3.1.1.3.3.1.A A   }  .J #.: 1 o O y 1 ",
"# y w w + h `   U ;.8.2.>.>.>.>.>.6.6.D 6.' A l u.o.X.X.~ ~ o.~ ~ o.~ ~ o.o.R O.q.=.( ( ( ( ( ( ( 9.( ( T ! ..X.' #.1 8 r % O 1 ",
"$ ; / w O = N   { G ^ -.x x ) ) Q Q Q x x ^ S q.F S l S S l S l l l F l l F S F q.G ..x Q Q Q Q -.-...-.-.;.Q Y Z 1 1 : 3 + & r ",
"$ $ ; w + r 2     ` { ; :.:.8 8 1 8 8 p.Z 6.;.;.b *.*.p p p p p *.*.p p p p q M q.G D 9.' ' ' ' V w ; y % k j 1 g o 1 : : # + r ",
"$ % 1 # # O 4 L q           N m m           U x g z z z z r.r.z z z z b z r.    G 2.N N             ` p N q { Y : 3 1 # @ # + 7 ",
"X # 3 7 3 3 3 $ $ & . k 2 ; # - , - - j q m I ,.T H b P P P 0 0 B 0 0 H H B q q ;.X.Z g L j j j i h { / ; o 8 Y 1 3 : X @ X 9 = ",
"$ 3 = 4 3 : $ = = = $ X # % o 4 r r r r j   E x t.B z 0 b B 0 z b 0 z z z 0 r.p l ~ s R = 6 6 6 @ 4 o 1 3 o 3 o : 3 % : 7 * @ = ",
"$ 3 o 3 3 + = X X 9 6 - r = # # 4 4 # o k   +.,.t.0 0 P 0 0 b z B P P 0 r.z q p l X.$.f @ 6 6 * @ $ 7 4 @ 3 % o 3 # # : + # $ $ ",
"o ; : 7 + $ g $ * * * * = 7 r $ 4 o o r j   +.,.t.0 b B 0 0 H P 0 B B b z b q p l X.K f 7 = 9 * 7 $ # X @ 3 : g = X 9 + o & # o ",
": o . + : : $ 7 - * 6 * * X X r X o g X j   W ^ #.P P b B 0 0 B B B B z z 0 q p S >.K J $ = @ = = 7 + @ & ; o $ + @ 9 X $ < 3 4 ",
"o 4 # 3 $ o X $ @ - * 9 @ 7 X $ X r 4 X j   I ,.@.B H B P P b 0 B P 0 z b b q p F 8.s f r r 7 7 = $ 7 3 3 7 $ & < * 6 < = X 9 = ",
"3 3 3 o X X X 3 + - * = 7 + = $ X r r = j   W x @.H %.%.P P b z b P P z z b q q l 2.o.#.7 4 $ 7 7 o $ g 4 4 3 * i 6 6 * * X < < "
};
